<?xml version="1.0" encoding="UTF-8"?>
<svg xmlns="http://www.w3.org/2000/svg" viewBox="0 0 800 450" width="800" height="450">
<defs>
<marker id="arrowhead" markerWidth="10" markerHeight="7" refX="9" refY="3.5" orient="auto">
  <polygon points="0 0, 10 3.5, 0 7" fill="#2D3748"/>
</marker>
<filter id="shadow" x="-4%" y="-4%" width="108%" height="108%">
  <feDropShadow dx="0" dy="2" stdDeviation="3" flood-opacity="0.08"/>
</filter>
</defs>
<rect x="0" y="0" width="800" height="450" rx="0" fill="#F8FAFE"/>
<text x="400" y="35" font-size="22" fill="#2D3748" text-anchor="middle" font-weight="bold" font-family="'Inter', 'Segoe UI', 'Helvetica Neue', sans-serif" dy="0.35em">Regular Chat vs. AI Agent</text>
<line x1="400" y1="55" x2="400" y2="420" stroke="#E2E8F0" stroke-width="2" stroke-dasharray="6,4"/>
<rect x="30" y="60" width="340" height="360" rx="12" fill="#FFFFFF" stroke="#E2E8F0" stroke-width="1.5"/>
<rect x="30" y="60" width="340" height="40" rx="12" fill="#EBF4FF"/>
<rect x="30" y="90" width="340" height="10" rx="0" fill="#EBF4FF"/>
<text x="200" y="84" font-size="15" fill="#2E7BF6" text-anchor="middle" font-weight="bold" font-family="'Inter', 'Segoe UI', 'Helvetica Neue', sans-serif" dy="0.35em">Regular Chat AI</text>
<rect x="80" y="120" width="100" height="50" rx="8" fill="#EBF4FF" stroke="#2E7BF6" stroke-width="1.5"/>
<text x="130" y="145" font-size="13" fill="#2E7BF6" text-anchor="middle" font-weight="600" font-family="'Inter', 'Segoe UI', 'Helvetica Neue', sans-serif" dy="0.35em">User</text>
<line x1="130" y1="175" x2="130" y2="200" stroke="#2D3748" stroke-width="1.5" marker-end="url(#arrowhead)"/>
<text x="145" y="190" font-size="10" fill="#718096" text-anchor="start" font-weight="normal" font-family="'Inter', 'Segoe UI', 'Helvetica Neue', sans-serif" dy="0.35em">question</text>
<rect x="80" y="205" width="100" height="50" rx="8" fill="#FFF3EB" stroke="#FF8A3D" stroke-width="1.5"/>
<text x="130" y="230" font-size="13" fill="#FF8A3D" text-anchor="middle" font-weight="600" font-family="'Inter', 'Segoe UI', 'Helvetica Neue', sans-serif" dy="0.35em">LLM</text>
<line x1="130" y1="260" x2="130" y2="285" stroke="#2D3748" stroke-width="1.5" marker-end="url(#arrowhead)"/>
<text x="145" y="275" font-size="10" fill="#718096" text-anchor="start" font-weight="normal" font-family="'Inter', 'Segoe UI', 'Helvetica Neue', sans-serif" dy="0.35em">answer</text>
<rect x="80" y="290" width="100" height="50" rx="8" fill="#F0FFF4" stroke="#48BB78" stroke-width="1.5"/>
<text x="130" y="315" font-size="12" fill="#276749" text-anchor="middle" font-weight="normal" font-family="'Inter', 'Segoe UI', 'Helvetica Neue', sans-serif" dy="0.35em">Text Output</text>
<text x="230" y="150" font-size="11" fill="#718096" text-anchor="start" font-weight="normal" font-family="'Inter', 'Segoe UI', 'Helvetica Neue', sans-serif" dy="0.35em">Single turn</text>
<text x="230" y="170" font-size="11" fill="#718096" text-anchor="start" font-weight="normal" font-family="'Inter', 'Segoe UI', 'Helvetica Neue', sans-serif" dy="0.35em">Text only</text>
<text x="230" y="190" font-size="11" fill="#718096" text-anchor="start" font-weight="normal" font-family="'Inter', 'Segoe UI', 'Helvetica Neue', sans-serif" dy="0.35em">No tools</text>
<text x="230" y="210" font-size="11" fill="#718096" text-anchor="start" font-weight="normal" font-family="'Inter', 'Segoe UI', 'Helvetica Neue', sans-serif" dy="0.35em">No memory</text>
<rect x="60" y="360" width="280" height="45" rx="8" fill="#EBF4FF"/>
<text x="200" y="380" font-size="13" fill="#2E7BF6" text-anchor="middle" font-weight="600" font-family="'Inter', 'Segoe UI', 'Helvetica Neue', sans-serif" dy="0.35em">Input -&gt; Output</text>
<text x="200" y="398" font-size="11" fill="#718096" text-anchor="middle" font-weight="normal" font-family="'Inter', 'Segoe UI', 'Helvetica Neue', sans-serif" dy="0.35em">One question, one answer</text>
<rect x="430" y="60" width="340" height="360" rx="12" fill="#FFFFFF" stroke="#22C1A6" stroke-width="2"/>
<rect x="430" y="60" width="340" height="40" rx="12" fill="#E6FAF5"/>
<rect x="430" y="90" width="340" height="10" rx="0" fill="#E6FAF5"/>
<text x="600" y="84" font-size="15" fill="#22C1A6" text-anchor="middle" font-weight="bold" font-family="'Inter', 'Segoe UI', 'Helvetica Neue', sans-serif" dy="0.35em">AI Agent</text>
<rect x="510" y="110" width="100" height="40" rx="8" fill="#EBF4FF" stroke="#2E7BF6" stroke-width="1.5"/>
<text x="560" y="130" font-size="12" fill="#2E7BF6" text-anchor="middle" font-weight="600" font-family="'Inter', 'Segoe UI', 'Helvetica Neue', sans-serif" dy="0.35em">User Goal</text>
<line x1="560" y1="155" x2="560" y2="175" stroke="#2D3748" stroke-width="1.5" marker-end="url(#arrowhead)"/>
<rect x="505" y="180" width="110" height="35" rx="8" fill="#EBF4FF" stroke="#2E7BF6" stroke-width="1.5"/>
<text x="560" y="198" font-size="12" fill="#2E7BF6" text-anchor="middle" font-weight="600" font-family="'Inter', 'Segoe UI', 'Helvetica Neue', sans-serif" dy="0.35em">Think</text>
<line x1="560" y1="220" x2="560" y2="240" stroke="#2D3748" stroke-width="1.5" marker-end="url(#arrowhead)"/>
<rect x="505" y="245" width="110" height="35" rx="8" fill="#FFF3EB" stroke="#FF8A3D" stroke-width="1.5"/>
<text x="560" y="263" font-size="12" fill="#FF8A3D" text-anchor="middle" font-weight="600" font-family="'Inter', 'Segoe UI', 'Helvetica Neue', sans-serif" dy="0.35em">Act (Tools)</text>
<line x1="560" y1="285" x2="560" y2="305" stroke="#2D3748" stroke-width="1.5" marker-end="url(#arrowhead)"/>
<rect x="505" y="310" width="110" height="35" rx="8" fill="#E6FAF5" stroke="#22C1A6" stroke-width="1.5"/>
<text x="560" y="328" font-size="12" fill="#22C1A6" text-anchor="middle" font-weight="600" font-family="'Inter', 'Segoe UI', 'Helvetica Neue', sans-serif" dy="0.35em">Observe</text>
<path d="M505,328 L485,328 Q475,328 475,318 L475,198 Q475,185 490,185 L500,198" fill="none" stroke="#718096" stroke-width="1.5"/>
<text x="460" y="260" font-size="10" fill="#718096" text-anchor="middle" font-weight="normal" font-family="'Inter', 'Segoe UI', 'Helvetica Neue', sans-serif" dy="0.35em">loop</text>
<rect x="640" y="180" width="110" height="140" rx="8" fill="#FFFFFF" stroke="#E2E8F0" stroke-width="1.5"/>
<text x="695" y="198" font-size="12" fill="#2D3748" text-anchor="middle" font-weight="600" font-family="'Inter', 'Segoe UI', 'Helvetica Neue', sans-serif" dy="0.35em">Tools</text>
<rect x="650" y="210" width="90" height="20" rx="4" fill="#FFF3EB"/>
<text x="695" y="220" font-size="10" fill="#FF8A3D" text-anchor="middle" font-weight="normal" font-family="'Inter', 'Segoe UI', 'Helvetica Neue', sans-serif" dy="0.35em">Search</text>
<rect x="650" y="235" width="90" height="20" rx="4" fill="#FFF3EB"/>
<text x="695" y="245" font-size="10" fill="#FF8A3D" text-anchor="middle" font-weight="normal" font-family="'Inter', 'Segoe UI', 'Helvetica Neue', sans-serif" dy="0.35em">Code</text>
<rect x="650" y="260" width="90" height="20" rx="4" fill="#FFF3EB"/>
<text x="695" y="270" font-size="10" fill="#FF8A3D" text-anchor="middle" font-weight="normal" font-family="'Inter', 'Segoe UI', 'Helvetica Neue', sans-serif" dy="0.35em">APIs</text>
<rect x="650" y="285" width="90" height="20" rx="4" fill="#FFF3EB"/>
<text x="695" y="295" font-size="10" fill="#FF8A3D" text-anchor="middle" font-weight="normal" font-family="'Inter', 'Segoe UI', 'Helvetica Neue', sans-serif" dy="0.35em">Files</text>
<line x1="620" y1="263" x2="635" y2="263" stroke="#FF8A3D" stroke-width="1.5" stroke-dasharray="3,2"/>
<rect x="460" y="360" width="280" height="45" rx="8" fill="#E6FAF5"/>
<text x="600" y="380" font-size="13" fill="#22C1A6" text-anchor="middle" font-weight="600" font-family="'Inter', 'Segoe UI', 'Helvetica Neue', sans-serif" dy="0.35em">Goal -&gt; Plan -&gt; Execute -&gt; Adapt</text>
<text x="600" y="398" font-size="11" fill="#718096" text-anchor="middle" font-weight="normal" font-family="'Inter', 'Segoe UI', 'Helvetica Neue', sans-serif" dy="0.35em">Multi-step with tools and memory</text>
</svg>