<?xml version="1.0" encoding="UTF-8"?>
<svg xmlns="http://www.w3.org/2000/svg" viewBox="0 0 800 450" width="800" height="450">
<defs>
<marker id="arrowhead" markerWidth="10" markerHeight="7" refX="9" refY="3.5" orient="auto">
  <polygon points="0 0, 10 3.5, 0 7" fill="#2D3748"/>
</marker>
<filter id="shadow" x="-4%" y="-4%" width="108%" height="108%">
  <feDropShadow dx="0" dy="2" stdDeviation="3" flood-opacity="0.08"/>
</filter>
</defs>
<rect x="0" y="0" width="800" height="450" rx="0" fill="#F8FAFE"/>
<text x="400" y="40" font-size="22" fill="#2D3748" text-anchor="middle" font-weight="bold" font-family="'Inter', 'Segoe UI', 'Helvetica Neue', sans-serif" dy="0.35em">AI Tools &amp; Platforms Overview</text>
<text x="400" y="62" font-size="12" fill="#718096" text-anchor="middle" font-weight="normal" font-family="'Inter', 'Segoe UI', 'Helvetica Neue', sans-serif" dy="0.35em">Popular tools for text, image, code, and audio generation</text>
<rect x="100" y="90" width="155" height="100" rx="10" fill="#FFFFFF" stroke="#E2E8F0" stroke-width="1.5" filter="url(#shadow)"/>
<rect x="100" y="90" width="155" height="6" rx="10" fill="#22C1A6" opacity="0.7"/>
<rect x="100" y="94" width="155" height="4" rx="0" fill="#22C1A6" opacity="0.7"/>
<circle cx="177.5" cy="130" r="18" fill="#22C1A6" opacity="0.15"/>
<circle cx="177.5" cy="130" r="18" fill="none" stroke="#22C1A6" stroke-width="1.5"/>
<text x="177.5" y="130" font-size="16" fill="#22C1A6" text-anchor="middle" font-weight="bold" font-family="'Inter', 'Segoe UI', 'Helvetica Neue', sans-serif" dy="0.35em">C</text>
<text x="177.5" y="165" font-size="12" fill="#2D3748" text-anchor="middle" font-weight="600" font-family="'Inter', 'Segoe UI', 'Helvetica Neue', sans-serif" dy="0.35em">ChatGPT</text>
<rect x="270" y="90" width="155" height="100" rx="10" fill="#FFFFFF" stroke="#E2E8F0" stroke-width="1.5" filter="url(#shadow)"/>
<rect x="270" y="90" width="155" height="6" rx="10" fill="#FF8A3D" opacity="0.7"/>
<rect x="270" y="94" width="155" height="4" rx="0" fill="#FF8A3D" opacity="0.7"/>
<circle cx="347.5" cy="130" r="18" fill="#FF8A3D" opacity="0.15"/>
<circle cx="347.5" cy="130" r="18" fill="none" stroke="#FF8A3D" stroke-width="1.5"/>
<text x="347.5" y="130" font-size="16" fill="#FF8A3D" text-anchor="middle" font-weight="bold" font-family="'Inter', 'Segoe UI', 'Helvetica Neue', sans-serif" dy="0.35em">C</text>
<text x="347.5" y="165" font-size="12" fill="#2D3748" text-anchor="middle" font-weight="600" font-family="'Inter', 'Segoe UI', 'Helvetica Neue', sans-serif" dy="0.35em">Claude</text>
<rect x="440" y="90" width="155" height="100" rx="10" fill="#FFFFFF" stroke="#E2E8F0" stroke-width="1.5" filter="url(#shadow)"/>
<rect x="440" y="90" width="155" height="6" rx="10" fill="#2E7BF6" opacity="0.7"/>
<rect x="440" y="94" width="155" height="4" rx="0" fill="#2E7BF6" opacity="0.7"/>
<circle cx="517.5" cy="130" r="18" fill="#2E7BF6" opacity="0.15"/>
<circle cx="517.5" cy="130" r="18" fill="none" stroke="#2E7BF6" stroke-width="1.5"/>
<text x="517.5" y="130" font-size="16" fill="#2E7BF6" text-anchor="middle" font-weight="bold" font-family="'Inter', 'Segoe UI', 'Helvetica Neue', sans-serif" dy="0.35em">M</text>
<text x="517.5" y="165" font-size="12" fill="#2D3748" text-anchor="middle" font-weight="600" font-family="'Inter', 'Segoe UI', 'Helvetica Neue', sans-serif" dy="0.35em">Midjourney</text>
<rect x="610" y="90" width="155" height="100" rx="10" fill="#FFFFFF" stroke="#E2E8F0" stroke-width="1.5" filter="url(#shadow)"/>
<rect x="610" y="90" width="155" height="6" rx="10" fill="#FF8A3D" opacity="0.7"/>
<rect x="610" y="94" width="155" height="4" rx="0" fill="#FF8A3D" opacity="0.7"/>
<circle cx="687.5" cy="130" r="18" fill="#FF8A3D" opacity="0.15"/>
<circle cx="687.5" cy="130" r="18" fill="none" stroke="#FF8A3D" stroke-width="1.5"/>
<text x="687.5" y="130" font-size="16" fill="#FF8A3D" text-anchor="middle" font-weight="bold" font-family="'Inter', 'Segoe UI', 'Helvetica Neue', sans-serif" dy="0.35em">D</text>
<text x="687.5" y="165" font-size="12" fill="#2D3748" text-anchor="middle" font-weight="600" font-family="'Inter', 'Segoe UI', 'Helvetica Neue', sans-serif" dy="0.35em">DALL-E</text>
<rect x="100" y="205" width="155" height="100" rx="10" fill="#FFFFFF" stroke="#E2E8F0" stroke-width="1.5" filter="url(#shadow)"/>
<rect x="100" y="205" width="155" height="6" rx="10" fill="#22C1A6" opacity="0.7"/>
<rect x="100" y="209" width="155" height="4" rx="0" fill="#22C1A6" opacity="0.7"/>
<circle cx="177.5" cy="245" r="18" fill="#22C1A6" opacity="0.15"/>
<circle cx="177.5" cy="245" r="18" fill="none" stroke="#22C1A6" stroke-width="1.5"/>
<text x="177.5" y="245" font-size="16" fill="#22C1A6" text-anchor="middle" font-weight="bold" font-family="'Inter', 'Segoe UI', 'Helvetica Neue', sans-serif" dy="0.35em">C</text>
<text x="177.5" y="280" font-size="12" fill="#2D3748" text-anchor="middle" font-weight="600" font-family="'Inter', 'Segoe UI', 'Helvetica Neue', sans-serif" dy="0.35em">Copilot</text>
<rect x="270" y="205" width="155" height="100" rx="10" fill="#FFFFFF" stroke="#E2E8F0" stroke-width="1.5" filter="url(#shadow)"/>
<rect x="270" y="205" width="155" height="6" rx="10" fill="#2E7BF6" opacity="0.7"/>
<rect x="270" y="209" width="155" height="4" rx="0" fill="#2E7BF6" opacity="0.7"/>
<circle cx="347.5" cy="245" r="18" fill="#2E7BF6" opacity="0.15"/>
<circle cx="347.5" cy="245" r="18" fill="none" stroke="#2E7BF6" stroke-width="1.5"/>
<text x="347.5" y="245" font-size="16" fill="#2E7BF6" text-anchor="middle" font-weight="bold" font-family="'Inter', 'Segoe UI', 'Helvetica Neue', sans-serif" dy="0.35em">G</text>
<text x="347.5" y="280" font-size="12" fill="#2D3748" text-anchor="middle" font-weight="600" font-family="'Inter', 'Segoe UI', 'Helvetica Neue', sans-serif" dy="0.35em">Gemini</text>
<rect x="440" y="205" width="155" height="100" rx="10" fill="#FFFFFF" stroke="#E2E8F0" stroke-width="1.5" filter="url(#shadow)"/>
<rect x="440" y="205" width="155" height="6" rx="10" fill="#FF8A3D" opacity="0.7"/>
<rect x="440" y="209" width="155" height="4" rx="0" fill="#FF8A3D" opacity="0.7"/>
<circle cx="517.5" cy="245" r="18" fill="#FF8A3D" opacity="0.15"/>
<circle cx="517.5" cy="245" r="18" fill="none" stroke="#FF8A3D" stroke-width="1.5"/>
<text x="517.5" y="245" font-size="16" fill="#FF8A3D" text-anchor="middle" font-weight="bold" font-family="'Inter', 'Segoe UI', 'Helvetica Neue', sans-serif" dy="0.35em">S</text>
<text x="517.5" y="280" font-size="12" fill="#2D3748" text-anchor="middle" font-weight="600" font-family="'Inter', 'Segoe UI', 'Helvetica Neue', sans-serif" dy="0.35em">Stable Diff.</text>
<rect x="610" y="205" width="155" height="100" rx="10" fill="#FFFFFF" stroke="#E2E8F0" stroke-width="1.5" filter="url(#shadow)"/>
<rect x="610" y="205" width="155" height="6" rx="10" fill="#22C1A6" opacity="0.7"/>
<rect x="610" y="209" width="155" height="4" rx="0" fill="#22C1A6" opacity="0.7"/>
<circle cx="687.5" cy="245" r="18" fill="#22C1A6" opacity="0.15"/>
<circle cx="687.5" cy="245" r="18" fill="none" stroke="#22C1A6" stroke-width="1.5"/>
<text x="687.5" y="245" font-size="16" fill="#22C1A6" text-anchor="middle" font-weight="bold" font-family="'Inter', 'Segoe UI', 'Helvetica Neue', sans-serif" dy="0.35em">W</text>
<text x="687.5" y="280" font-size="12" fill="#2D3748" text-anchor="middle" font-weight="600" font-family="'Inter', 'Segoe UI', 'Helvetica Neue', sans-serif" dy="0.35em">Whisper</text>
<rect x="100" y="320" width="155" height="100" rx="10" fill="#FFFFFF" stroke="#E2E8F0" stroke-width="1.5" filter="url(#shadow)"/>
<rect x="100" y="320" width="155" height="6" rx="10" fill="#2E7BF6" opacity="0.7"/>
<rect x="100" y="324" width="155" height="4" rx="0" fill="#2E7BF6" opacity="0.7"/>
<circle cx="177.5" cy="360" r="18" fill="#2E7BF6" opacity="0.15"/>
<circle cx="177.5" cy="360" r="18" fill="none" stroke="#2E7BF6" stroke-width="1.5"/>
<text x="177.5" y="360" font-size="16" fill="#2E7BF6" text-anchor="middle" font-weight="bold" font-family="'Inter', 'Segoe UI', 'Helvetica Neue', sans-serif" dy="0.35em">L</text>
<text x="177.5" y="395" font-size="12" fill="#2D3748" text-anchor="middle" font-weight="600" font-family="'Inter', 'Segoe UI', 'Helvetica Neue', sans-serif" dy="0.35em">LLaMA</text>
<rect x="270" y="320" width="155" height="100" rx="10" fill="#FFFFFF" stroke="#E2E8F0" stroke-width="1.5" filter="url(#shadow)"/>
<rect x="270" y="320" width="155" height="6" rx="10" fill="#FF8A3D" opacity="0.7"/>
<rect x="270" y="324" width="155" height="4" rx="0" fill="#FF8A3D" opacity="0.7"/>
<circle cx="347.5" cy="360" r="18" fill="#FF8A3D" opacity="0.15"/>
<circle cx="347.5" cy="360" r="18" fill="none" stroke="#FF8A3D" stroke-width="1.5"/>
<text x="347.5" y="360" font-size="16" fill="#FF8A3D" text-anchor="middle" font-weight="bold" font-family="'Inter', 'Segoe UI', 'Helvetica Neue', sans-serif" dy="0.35em">H</text>
<text x="347.5" y="395" font-size="12" fill="#2D3748" text-anchor="middle" font-weight="600" font-family="'Inter', 'Segoe UI', 'Helvetica Neue', sans-serif" dy="0.35em">Hugging Face</text>
<rect x="440" y="320" width="155" height="100" rx="10" fill="#FFFFFF" stroke="#E2E8F0" stroke-width="1.5" filter="url(#shadow)"/>
<rect x="440" y="320" width="155" height="6" rx="10" fill="#22C1A6" opacity="0.7"/>
<rect x="440" y="324" width="155" height="4" rx="0" fill="#22C1A6" opacity="0.7"/>
<circle cx="517.5" cy="360" r="18" fill="#22C1A6" opacity="0.15"/>
<circle cx="517.5" cy="360" r="18" fill="none" stroke="#22C1A6" stroke-width="1.5"/>
<text x="517.5" y="360" font-size="16" fill="#22C1A6" text-anchor="middle" font-weight="bold" font-family="'Inter', 'Segoe UI', 'Helvetica Neue', sans-serif" dy="0.35em">L</text>
<text x="517.5" y="395" font-size="12" fill="#2D3748" text-anchor="middle" font-weight="600" font-family="'Inter', 'Segoe UI', 'Helvetica Neue', sans-serif" dy="0.35em">LangChain</text>
<rect x="610" y="320" width="155" height="100" rx="10" fill="#FFFFFF" stroke="#E2E8F0" stroke-width="1.5" filter="url(#shadow)"/>
<rect x="610" y="320" width="155" height="6" rx="10" fill="#2E7BF6" opacity="0.7"/>
<rect x="610" y="324" width="155" height="4" rx="0" fill="#2E7BF6" opacity="0.7"/>
<circle cx="687.5" cy="360" r="18" fill="#2E7BF6" opacity="0.15"/>
<circle cx="687.5" cy="360" r="18" fill="none" stroke="#2E7BF6" stroke-width="1.5"/>
<text x="687.5" y="360" font-size="16" fill="#2E7BF6" text-anchor="middle" font-weight="bold" font-family="'Inter', 'Segoe UI', 'Helvetica Neue', sans-serif" dy="0.35em">T</text>
<text x="687.5" y="395" font-size="12" fill="#2D3748" text-anchor="middle" font-weight="600" font-family="'Inter', 'Segoe UI', 'Helvetica Neue', sans-serif" dy="0.35em">TensorFlow</text>
<rect x="150" y="420" width="14" height="14" rx="3" fill="#22C1A6"/>
<text x="172" y="427" font-size="11" fill="#2D3748" text-anchor="start" font-weight="normal" font-family="'Inter', 'Segoe UI', 'Helvetica Neue', sans-serif" dy="0.35em">Text/Chat</text>
<rect x="310" y="420" width="14" height="14" rx="3" fill="#2E7BF6"/>
<text x="332" y="427" font-size="11" fill="#2D3748" text-anchor="start" font-weight="normal" font-family="'Inter', 'Segoe UI', 'Helvetica Neue', sans-serif" dy="0.35em">Image/Vision</text>
<rect x="470" y="420" width="14" height="14" rx="3" fill="#FF8A3D"/>
<text x="492" y="427" font-size="11" fill="#2D3748" text-anchor="start" font-weight="normal" font-family="'Inter', 'Segoe UI', 'Helvetica Neue', sans-serif" dy="0.35em">Multi-purpose</text>
</svg>