<?xml version="1.0" encoding="UTF-8"?>
<svg xmlns="http://www.w3.org/2000/svg" viewBox="0 0 800 450" width="800" height="450">
<defs>
<marker id="arrowhead" markerWidth="10" markerHeight="7" refX="9" refY="3.5" orient="auto">
  <polygon points="0 0, 10 3.5, 0 7" fill="#2D3748"/>
</marker>
<filter id="shadow" x="-4%" y="-4%" width="108%" height="108%">
  <feDropShadow dx="0" dy="2" stdDeviation="3" flood-opacity="0.08"/>
</filter>
</defs>
<rect x="0" y="0" width="800" height="450" rx="0" fill="#F8FAFE"/>
<text x="400" y="38" font-size="24" fill="#2D3748" text-anchor="middle" font-weight="bold" font-family="'Inter', 'Segoe UI', 'Helvetica Neue', sans-serif" dy="0.35em">Traditional Programming vs. AI</text>
<line x1="400" y1="70" x2="400" y2="420" stroke="#E2E8F0" stroke-width="1.5" stroke-dasharray="6,4"/>
<text x="200" y="80" font-size="16" fill="#718096" text-anchor="middle" font-weight="600" font-family="'Inter', 'Segoe UI', 'Helvetica Neue', sans-serif" dy="0.35em">Traditional Programming</text>
<rect x="100" y="120" width="200" height="60" rx="10" fill="#FFF3EB" stroke="#FF8A3D" stroke-width="1.5"/>
<text x="200" y="145" font-size="15" fill="#FF8A3D" text-anchor="middle" font-weight="600" font-family="'Inter', 'Segoe UI', 'Helvetica Neue', sans-serif" dy="0.35em">Rules</text>
<text x="200" y="165" font-size="11" fill="#718096" text-anchor="middle" font-weight="normal" font-family="'Inter', 'Segoe UI', 'Helvetica Neue', sans-serif" dy="0.35em">(if-then logic)</text>
<line x1="200" y1="185" x2="200" y2="220" stroke="#718096" stroke-width="1.5" marker-end="url(#arrowhead)"/>
<rect x="130" y="225" width="140" height="55" rx="10" fill="#EBF4FF" stroke="#2E7BF6" stroke-width="1.5"/>
<g transform="translate(143, 240) scale(0.9166666666666666)">
<path d="M6 4h12a2 2 0 012 2v12a2 2 0 01-2 2H6a2 2 0 01-2-2V6a2 2 0 012-2zm3 5h6v6H9V9zm-5 2h2m14 0h2M11 2v2m0 16v2m4-20v2m0 16v2M7 2v2m0 16v2" fill="#2E7BF6" stroke="none" stroke-width="0"/>
</g>
<text x="200" y="257" font-size="13" fill="#2D3748" text-anchor="middle" font-weight="normal" font-family="'Inter', 'Segoe UI', 'Helvetica Neue', sans-serif" dy="0.35em">Computer</text>
<line x1="200" y1="285" x2="200" y2="320" stroke="#718096" stroke-width="1.5" marker-end="url(#arrowhead)"/>
<rect x="130" y="325" width="140" height="50" rx="10" fill="#E6FAF5" stroke="#22C1A6" stroke-width="1.5"/>
<text x="200" y="355" font-size="14" fill="#22C1A6" text-anchor="middle" font-weight="500" font-family="'Inter', 'Segoe UI', 'Helvetica Neue', sans-serif" dy="0.35em">Output</text>
<circle cx="85" cy="150" r="15" fill="#FFF3EB" stroke="#FF8A3D" stroke-width="1.5"/>
<text x="85" y="148" font-size="12" fill="#2D3748" text-anchor="middle" font-weight="normal" font-family="'Inter', 'Segoe UI', 'Helvetica Neue', sans-serif" dy="0.35em">✍</text>
<path d="M95,145 L100,145" fill="none" stroke="#FF8A3D" stroke-width="1"/>
<text x="600" y="80" font-size="16" fill="#2E7BF6" text-anchor="middle" font-weight="600" font-family="'Inter', 'Segoe UI', 'Helvetica Neue', sans-serif" dy="0.35em">AI / Machine Learning</text>
<rect x="500" y="120" width="200" height="60" rx="10" fill="#EBF4FF" stroke="#2E7BF6" stroke-width="1.5"/>
<g transform="translate(518, 137) scale(0.9166666666666666)">
<path d="M12 2C8 2 4 3.5 4 5.5v13C4 20.5 8 22 12 22s8-1.5 8-3.5v-13C20 3.5 16 2 12 2zm0 2c4 0 6 1.2 6 1.5S16 7 12 7 6 5.8 6 5.5 8 4 12 4zM6 8c1.5 1 3.5 1.5 6 1.5S16.5 9 18 8v3.5c0 .3-2 1.5-6 1.5s-6-1.2-6-1.5V8zm0 6c1.5 1 3.5 1.5 6 1.5s4.5-.5 6-1.5v3.5c0 .3-2 1.5-6 1.5s-6-1.2-6-1.5V14z" fill="#2E7BF6" stroke="none" stroke-width="0"/>
</g>
<text x="600" y="145" font-size="15" fill="#2E7BF6" text-anchor="middle" font-weight="600" font-family="'Inter', 'Segoe UI', 'Helvetica Neue', sans-serif" dy="0.35em">Data</text>
<text x="600" y="165" font-size="11" fill="#718096" text-anchor="middle" font-weight="normal" font-family="'Inter', 'Segoe UI', 'Helvetica Neue', sans-serif" dy="0.35em">(examples &amp; patterns)</text>
<line x1="600" y1="185" x2="600" y2="220" stroke="#718096" stroke-width="1.5" marker-end="url(#arrowhead)"/>
<rect x="530" y="225" width="140" height="55" rx="10" fill="#E6FAF5" stroke="#22C1A6" stroke-width="1.5"/>
<g transform="translate(545, 240) scale(0.8333333333333334)">
<path d="M12 2C8.5 2 6 4.5 6 7.5c0 1.5.5 2.8 1.4 3.8C6.5 12.5 6 14 6 15.5 6 18.5 8.5 21 12 21s6-2.5 6-6.5c0-1.5-.5-3-1.4-4C17.5 9.3 18 8 18 6.5 18 4.5 15.5 2 12 2zm0 2c1.5 0 3 .8 3.5 2-.5.2-1 .5-1.5.8-.5-.5-1.2-.8-2-.8s-1.5.3-2 .8c-.5-.3-1-.6-1.5-.8C9 4.8 10.5 4 12 4z" fill="#2E7BF6" stroke="none" stroke-width="0"/>
</g>
<text x="600" y="257" font-size="13" fill="#2D3748" text-anchor="middle" font-weight="normal" font-family="'Inter', 'Segoe UI', 'Helvetica Neue', sans-serif" dy="0.35em">Learning</text>
<line x1="600" y1="285" x2="600" y2="320" stroke="#718096" stroke-width="1.5" marker-end="url(#arrowhead)"/>
<rect x="530" y="325" width="140" height="50" rx="10" fill="#FFF3EB" stroke="#FF8A3D" stroke-width="1.5"/>
<text x="600" y="345" font-size="13" fill="#FF8A3D" text-anchor="middle" font-weight="500" font-family="'Inter', 'Segoe UI', 'Helvetica Neue', sans-serif" dy="0.35em">Output +</text>
<text x="600" y="363" font-size="12" fill="#FF8A3D" text-anchor="middle" font-weight="normal" font-family="'Inter', 'Segoe UI', 'Helvetica Neue', sans-serif" dy="0.35em">Learned Rules</text>
<rect x="100" y="400" width="200" height="30" rx="6" fill="#718096" opacity="0.1"/>
<text x="200" y="418" font-size="11" fill="#718096" text-anchor="middle" font-weight="normal" font-family="'Inter', 'Segoe UI', 'Helvetica Neue', sans-serif" dy="0.35em">Human writes rules</text>
<rect x="500" y="400" width="200" height="30" rx="6" fill="#2E7BF6" opacity="0.1"/>
<text x="600" y="418" font-size="11" fill="#2E7BF6" text-anchor="middle" font-weight="normal" font-family="'Inter', 'Segoe UI', 'Helvetica Neue', sans-serif" dy="0.35em">Machine learns rules</text>
<circle cx="400" cy="250" r="22" fill="#FFFFFF" stroke="#E2E8F0" stroke-width="2"/>
<text x="400" y="250" font-size="12" fill="#718096" text-anchor="middle" font-weight="bold" font-family="'Inter', 'Segoe UI', 'Helvetica Neue', sans-serif" dy="0.35em">VS</text>
</svg>