<?xml version="1.0" encoding="UTF-8"?>
<svg xmlns="http://www.w3.org/2000/svg" viewBox="0 0 800 450" width="800" height="450">
<defs>
<marker id="arrowhead" markerWidth="10" markerHeight="7" refX="9" refY="3.5" orient="auto">
  <polygon points="0 0, 10 3.5, 0 7" fill="#2D3748"/>
</marker>
<filter id="shadow" x="-4%" y="-4%" width="108%" height="108%">
  <feDropShadow dx="0" dy="2" stdDeviation="3" flood-opacity="0.08"/>
</filter>
</defs>
<rect x="0" y="0" width="800" height="450" rx="0" fill="#F8FAFE"/>
<circle cx="680" cy="80" r="140" fill="#EBF4FF" opacity="0.3"/>
<text x="400" y="40" font-size="26" fill="#2D3748" text-anchor="middle" font-weight="bold" font-family="'Inter', 'Segoe UI', 'Helvetica Neue', sans-serif" dy="0.35em">The AI Pyramid</text>
<text x="400" y="65" font-size="13" fill="#718096" text-anchor="middle" font-weight="normal" font-family="'Inter', 'Segoe UI', 'Helvetica Neue', sans-serif" dy="0.35em">Three layers of intelligence</text>
<polygon points="400,100 320,200 480,200" fill="#FF8A3D" opacity="0.85"/>
<text x="400" y="165" font-size="15" fill="#FFFFFF" text-anchor="middle" font-weight="600" font-family="'Inter', 'Segoe UI', 'Helvetica Neue', sans-serif" dy="0.35em">Deep Learning</text>
<polygon points="320,208 260,310 540,310 480,208" fill="#22C1A6" opacity="0.85"/>
<text x="400" y="270" font-size="16" fill="#FFFFFF" text-anchor="middle" font-weight="600" font-family="'Inter', 'Segoe UI', 'Helvetica Neue', sans-serif" dy="0.35em">Machine Learning</text>
<polygon points="260,318 200,420 600,420 540,318" fill="#2E7BF6" opacity="0.85"/>
<text x="400" y="378" font-size="17" fill="#FFFFFF" text-anchor="middle" font-weight="600" font-family="'Inter', 'Segoe UI', 'Helvetica Neue', sans-serif" dy="0.35em">Artificial Intelligence</text>
<line x1="485" y1="155" x2="560" y2="140" stroke="#718096" stroke-width="1" stroke-dasharray="3,3"/>
<text x="570" y="140" font-size="11" fill="#718096" text-anchor="start" font-weight="normal" font-family="'Inter', 'Segoe UI', 'Helvetica Neue', sans-serif" dy="0.35em">Neural networks with</text>
<text x="570" y="155" font-size="11" fill="#718096" text-anchor="start" font-weight="normal" font-family="'Inter', 'Segoe UI', 'Helvetica Neue', sans-serif" dy="0.35em">many layers</text>
<line x1="545" y1="260" x2="590" y2="255" stroke="#718096" stroke-width="1" stroke-dasharray="3,3"/>
<text x="600" y="250" font-size="11" fill="#718096" text-anchor="start" font-weight="normal" font-family="'Inter', 'Segoe UI', 'Helvetica Neue', sans-serif" dy="0.35em">Learning patterns</text>
<text x="600" y="265" font-size="11" fill="#718096" text-anchor="start" font-weight="normal" font-family="'Inter', 'Segoe UI', 'Helvetica Neue', sans-serif" dy="0.35em">from data</text>
<line x1="605" y1="370" x2="630" y2="365" stroke="#718096" stroke-width="1" stroke-dasharray="3,3"/>
<text x="640" y="360" font-size="11" fill="#718096" text-anchor="start" font-weight="normal" font-family="'Inter', 'Segoe UI', 'Helvetica Neue', sans-serif" dy="0.35em">Machines that mimic</text>
<text x="640" y="375" font-size="11" fill="#718096" text-anchor="start" font-weight="normal" font-family="'Inter', 'Segoe UI', 'Helvetica Neue', sans-serif" dy="0.35em">human intelligence</text>
<g transform="translate(130, 135) scale(1.1666666666666667)">
<path d="M12 2C8.5 2 6 4.5 6 7.5c0 1.5.5 2.8 1.4 3.8C6.5 12.5 6 14 6 15.5 6 18.5 8.5 21 12 21s6-2.5 6-6.5c0-1.5-.5-3-1.4-4C17.5 9.3 18 8 18 6.5 18 4.5 15.5 2 12 2zm0 2c1.5 0 3 .8 3.5 2-.5.2-1 .5-1.5.8-.5-.5-1.2-.8-2-.8s-1.5.3-2 .8c-.5-.3-1-.6-1.5-.8C9 4.8 10.5 4 12 4z" fill="#2E7BF6" stroke="none" stroke-width="0"/>
</g>
<text x="155" y="170" font-size="12" fill="#FF8A3D" text-anchor="middle" font-weight="600" font-family="'Inter', 'Segoe UI', 'Helvetica Neue', sans-serif" dy="0.35em">DL</text>
<g transform="translate(100, 245) scale(1.1666666666666667)">
<path d="M12 8a4 4 0 100 8 4 4 0 000-8zm0-6l1.5 2.4a7 7 0 013.1 1.8L19 5l1 3.5-2.3 1.2a7 7 0 010 3.6L20 14.5 19 18l-2.4-1.2a7 7 0 01-3.1 1.8L12 21l-1.5-2.4a7 7 0 01-3.1-1.8L5 18l-1-3.5 2.3-1.2a7 7 0 010-3.6L4 8.5 5 5l2.4 1.2a7 7 0 013.1-1.8L12 2z" fill="#2E7BF6" stroke="none" stroke-width="0"/>
</g>
<text x="125" y="280" font-size="12" fill="#22C1A6" text-anchor="middle" font-weight="600" font-family="'Inter', 'Segoe UI', 'Helvetica Neue', sans-serif" dy="0.35em">ML</text>
<g transform="translate(80, 355) scale(1.1666666666666667)">
<path d="M12 2a2 2 0 012 2v1h3a2 2 0 012 2v10a2 2 0 01-2 2H7a2 2 0 01-2-2V7a2 2 0 012-2h3V4a2 2 0 012-2zm-2 9a1.5 1.5 0 100 3 1.5 1.5 0 000-3zm4 0a1.5 1.5 0 100 3 1.5 1.5 0 000-3zm-2 5c-1.5 0-2.5-.5-3-1h6c-.5.5-1.5 1-3 1z" fill="#2E7BF6" stroke="none" stroke-width="0"/>
</g>
<text x="105" y="390" font-size="12" fill="#2E7BF6" text-anchor="middle" font-weight="600" font-family="'Inter', 'Segoe UI', 'Helvetica Neue', sans-serif" dy="0.35em">AI</text>
<circle cx="60" cy="80" r="4" fill="#FF8A3D" opacity="0.4"/>
<circle cx="750" cy="420" r="5" fill="#2E7BF6" opacity="0.3"/>
</svg>