<?xml version="1.0" encoding="UTF-8"?>
<svg xmlns="http://www.w3.org/2000/svg" viewBox="0 0 800 450" width="800" height="450">
<defs>
<marker id="arrowhead" markerWidth="10" markerHeight="7" refX="9" refY="3.5" orient="auto">
  <polygon points="0 0, 10 3.5, 0 7" fill="#2D3748"/>
</marker>
<filter id="shadow" x="-4%" y="-4%" width="108%" height="108%">
  <feDropShadow dx="0" dy="2" stdDeviation="3" flood-opacity="0.08"/>
</filter>
</defs>
<rect x="0" y="0" width="800" height="450" rx="0" fill="#F8FAFE"/>
<text x="400" y="40" font-size="22" fill="#2D3748" text-anchor="middle" font-weight="bold" font-family="'Inter', 'Segoe UI', 'Helvetica Neue', sans-serif" dy="0.35em">Three Ingredients of the AI Explosion</text>
<text x="400" y="65" font-size="13" fill="#718096" text-anchor="middle" font-weight="normal" font-family="'Inter', 'Segoe UI', 'Helvetica Neue', sans-serif" dy="0.35em">Data + Compute + Algorithms = AI</text>
<rect x="60" y="100" width="200" height="240" rx="16" fill="#EBF4FF" stroke="#2E7BF6" stroke-width="1.5" opacity="0.3"/>
<rect x="60" y="100" width="200" height="240" rx="16" fill="none" stroke="#2E7BF6" stroke-width="1.5"/>
<g transform="translate(148, 130) scale(1.1666666666666667)">
<path d="M12 2C8 2 4 3.5 4 5.5v13C4 20.5 8 22 12 22s8-1.5 8-3.5v-13C20 3.5 16 2 12 2zm0 2c4 0 6 1.2 6 1.5S16 7 12 7 6 5.8 6 5.5 8 4 12 4zM6 8c1.5 1 3.5 1.5 6 1.5S16.5 9 18 8v3.5c0 .3-2 1.5-6 1.5s-6-1.2-6-1.5V8zm0 6c1.5 1 3.5 1.5 6 1.5s4.5-.5 6-1.5v3.5c0 .3-2 1.5-6 1.5s-6-1.2-6-1.5V14z" fill="#2E7BF6" stroke="none" stroke-width="0"/>
</g>
<text x="160" y="175" font-size="18" fill="#2E7BF6" text-anchor="middle" font-weight="bold" font-family="'Inter', 'Segoe UI', 'Helvetica Neue', sans-serif" dy="0.35em">Data</text>
<text x="160" y="200" font-size="12" fill="#718096" text-anchor="middle" font-weight="normal" font-family="'Inter', 'Segoe UI', 'Helvetica Neue', sans-serif" dy="0.35em">(Ingredients)</text>
<rect x="90" y="220" width="140" height="24" rx="4" fill="#FFFFFF" stroke="#E2E8F0" stroke-width="1.5"/>
<text x="160" y="232" font-size="11" fill="#2D3748" text-anchor="middle" font-weight="normal" font-family="'Inter', 'Segoe UI', 'Helvetica Neue', sans-serif" dy="0.35em">Images, Text, Video</text>
<rect x="90" y="252" width="140" height="24" rx="4" fill="#FFFFFF" stroke="#E2E8F0" stroke-width="1.5"/>
<text x="160" y="264" font-size="11" fill="#2D3748" text-anchor="middle" font-weight="normal" font-family="'Inter', 'Segoe UI', 'Helvetica Neue', sans-serif" dy="0.35em">Labeled examples</text>
<rect x="90" y="284" width="140" height="24" rx="4" fill="#FFFFFF" stroke="#E2E8F0" stroke-width="1.5"/>
<text x="160" y="296" font-size="11" fill="#2D3748" text-anchor="middle" font-weight="normal" font-family="'Inter', 'Segoe UI', 'Helvetica Neue', sans-serif" dy="0.35em">Massive datasets</text>
<rect x="300" y="100" width="200" height="240" rx="16" fill="#E6FAF5" stroke="#22C1A6" stroke-width="1.5" opacity="0.3"/>
<rect x="300" y="100" width="200" height="240" rx="16" fill="none" stroke="#22C1A6" stroke-width="1.5"/>
<g transform="translate(388, 130) scale(1.1666666666666667)">
<path d="M6 4h12a2 2 0 012 2v12a2 2 0 01-2 2H6a2 2 0 01-2-2V6a2 2 0 012-2zm3 5h6v6H9V9zm-5 2h2m14 0h2M11 2v2m0 16v2m4-20v2m0 16v2M7 2v2m0 16v2" fill="#2E7BF6" stroke="none" stroke-width="0"/>
</g>
<text x="400" y="175" font-size="18" fill="#22C1A6" text-anchor="middle" font-weight="bold" font-family="'Inter', 'Segoe UI', 'Helvetica Neue', sans-serif" dy="0.35em">Compute</text>
<text x="400" y="200" font-size="12" fill="#718096" text-anchor="middle" font-weight="normal" font-family="'Inter', 'Segoe UI', 'Helvetica Neue', sans-serif" dy="0.35em">(Kitchen &amp; Stove)</text>
<rect x="330" y="220" width="140" height="24" rx="4" fill="#FFFFFF" stroke="#E2E8F0" stroke-width="1.5"/>
<text x="400" y="232" font-size="11" fill="#2D3748" text-anchor="middle" font-weight="normal" font-family="'Inter', 'Segoe UI', 'Helvetica Neue', sans-serif" dy="0.35em">GPU Chips</text>
<rect x="330" y="252" width="140" height="24" rx="4" fill="#FFFFFF" stroke="#E2E8F0" stroke-width="1.5"/>
<text x="400" y="264" font-size="11" fill="#2D3748" text-anchor="middle" font-weight="normal" font-family="'Inter', 'Segoe UI', 'Helvetica Neue', sans-serif" dy="0.35em">Cloud Clusters</text>
<rect x="330" y="284" width="140" height="24" rx="4" fill="#FFFFFF" stroke="#E2E8F0" stroke-width="1.5"/>
<text x="400" y="296" font-size="11" fill="#2D3748" text-anchor="middle" font-weight="normal" font-family="'Inter', 'Segoe UI', 'Helvetica Neue', sans-serif" dy="0.35em">Parallel Processing</text>
<rect x="540" y="100" width="200" height="240" rx="16" fill="#FFF3EB" stroke="#FF8A3D" stroke-width="1.5" opacity="0.3"/>
<rect x="540" y="100" width="200" height="240" rx="16" fill="none" stroke="#FF8A3D" stroke-width="1.5"/>
<g transform="translate(628, 130) scale(1.1666666666666667)">
<path d="M4 4a2 2 0 012-2h8a2 2 0 012 2v16l-6-3-6 3V4z" fill="#2E7BF6" stroke="none" stroke-width="0"/>
</g>
<text x="640" y="175" font-size="18" fill="#FF8A3D" text-anchor="middle" font-weight="bold" font-family="'Inter', 'Segoe UI', 'Helvetica Neue', sans-serif" dy="0.35em">Algorithms</text>
<text x="640" y="200" font-size="12" fill="#718096" text-anchor="middle" font-weight="normal" font-family="'Inter', 'Segoe UI', 'Helvetica Neue', sans-serif" dy="0.35em">(Recipe)</text>
<rect x="570" y="220" width="140" height="24" rx="4" fill="#FFFFFF" stroke="#E2E8F0" stroke-width="1.5"/>
<text x="640" y="232" font-size="11" fill="#2D3748" text-anchor="middle" font-weight="normal" font-family="'Inter', 'Segoe UI', 'Helvetica Neue', sans-serif" dy="0.35em">Neural Networks</text>
<rect x="570" y="252" width="140" height="24" rx="4" fill="#FFFFFF" stroke="#E2E8F0" stroke-width="1.5"/>
<text x="640" y="264" font-size="11" fill="#2D3748" text-anchor="middle" font-weight="normal" font-family="'Inter', 'Segoe UI', 'Helvetica Neue', sans-serif" dy="0.35em">Transformers</text>
<rect x="570" y="284" width="140" height="24" rx="4" fill="#FFFFFF" stroke="#E2E8F0" stroke-width="1.5"/>
<text x="640" y="296" font-size="11" fill="#2D3748" text-anchor="middle" font-weight="normal" font-family="'Inter', 'Segoe UI', 'Helvetica Neue', sans-serif" dy="0.35em">Backpropagation</text>
<line x1="160" y1="350" x2="370" y2="390" stroke="#2E7BF6" stroke-width="1.5" marker-end="url(#arrowhead)"/>
<line x1="400" y1="350" x2="400" y2="385" stroke="#22C1A6" stroke-width="1.5" marker-end="url(#arrowhead)"/>
<line x1="640" y1="350" x2="430" y2="390" stroke="#FF8A3D" stroke-width="1.5" marker-end="url(#arrowhead)"/>
<circle cx="400" cy="410" r="28" fill="#2E7BF6" opacity="0.15"/>
<circle cx="400" cy="410" r="28" fill="none" stroke="#2E7BF6" stroke-width="2"/>
<text x="400" y="410" font-size="16" fill="#2E7BF6" text-anchor="middle" font-weight="bold" font-family="'Inter', 'Segoe UI', 'Helvetica Neue', sans-serif" dy="0.35em">AI</text>
</svg>