<?xml version="1.0" encoding="UTF-8"?>
<svg xmlns="http://www.w3.org/2000/svg" viewBox="0 0 800 450" width="800" height="450">
<defs>
<marker id="arrowhead" markerWidth="10" markerHeight="7" refX="9" refY="3.5" orient="auto">
  <polygon points="0 0, 10 3.5, 0 7" fill="#2D3748"/>
</marker>
<filter id="shadow" x="-4%" y="-4%" width="108%" height="108%">
  <feDropShadow dx="0" dy="2" stdDeviation="3" flood-opacity="0.08"/>
</filter>
</defs>
<rect x="0" y="0" width="800" height="450" rx="0" fill="#F8FAFE"/>
<text x="400" y="40" font-size="24" fill="#2D3748" text-anchor="middle" font-weight="bold" font-family="'Inter', 'Segoe UI', 'Helvetica Neue', sans-serif" dy="0.35em">Three Elements of Machine Learning</text>
<line x1="400" y1="135" x2="230" y2="335" stroke="#E2E8F0" stroke-width="2"/>
<line x1="400" y1="135" x2="570" y2="335" stroke="#E2E8F0" stroke-width="2"/>
<line x1="240" y1="360" x2="560" y2="360" stroke="#E2E8F0" stroke-width="2"/>
<text x="285" y="220" font-size="16" fill="#718096" text-anchor="middle" font-weight="normal" font-family="'Inter', 'Segoe UI', 'Helvetica Neue', sans-serif" dy="0.35em">↔</text>
<text x="515" y="220" font-size="16" fill="#718096" text-anchor="middle" font-weight="normal" font-family="'Inter', 'Segoe UI', 'Helvetica Neue', sans-serif" dy="0.35em">↔</text>
<text x="400" y="375" font-size="16" fill="#718096" text-anchor="middle" font-weight="normal" font-family="'Inter', 'Segoe UI', 'Helvetica Neue', sans-serif" dy="0.35em">↔</text>
<text x="400" y="250" font-size="13" fill="#718096" text-anchor="middle" font-weight="normal" font-family="'Inter', 'Segoe UI', 'Helvetica Neue', sans-serif" dy="0.35em">None can</text>
<text x="400" y="268" font-size="13" fill="#718096" text-anchor="middle" font-weight="normal" font-family="'Inter', 'Segoe UI', 'Helvetica Neue', sans-serif" dy="0.35em">be missing</text>
<circle cx="400" cy="100" r="40" fill="#2E7BF6" opacity="0.15"/>
<circle cx="400" cy="100" r="40" fill="none" stroke="#2E7BF6" stroke-width="2.5"/>
<g transform="translate(388, 84) scale(1)">
<path d="M12 2C8 2 4 3.5 4 5.5v13C4 20.5 8 22 12 22s8-1.5 8-3.5v-13C20 3.5 16 2 12 2zm0 2c4 0 6 1.2 6 1.5S16 7 12 7 6 5.8 6 5.5 8 4 12 4zM6 8c1.5 1 3.5 1.5 6 1.5S16.5 9 18 8v3.5c0 .3-2 1.5-6 1.5s-6-1.2-6-1.5V8zm0 6c1.5 1 3.5 1.5 6 1.5s4.5-.5 6-1.5v3.5c0 .3-2 1.5-6 1.5s-6-1.2-6-1.5V14z" fill="#2E7BF6" stroke="none" stroke-width="0"/>
</g>
<text x="400" y="155" font-size="16" fill="#2E7BF6" text-anchor="middle" font-weight="600" font-family="'Inter', 'Segoe UI', 'Helvetica Neue', sans-serif" dy="0.35em">Data</text>
<text x="400" y="173" font-size="11" fill="#718096" text-anchor="middle" font-weight="normal" font-family="'Inter', 'Segoe UI', 'Helvetica Neue', sans-serif" dy="0.35em">Examples to learn from</text>
<circle cx="200" cy="360" r="40" fill="#22C1A6" opacity="0.15"/>
<circle cx="200" cy="360" r="40" fill="none" stroke="#22C1A6" stroke-width="2.5"/>
<g transform="translate(188, 344) scale(1)">
<path d="M12 8a4 4 0 100 8 4 4 0 000-8zm0-6l1.5 2.4a7 7 0 013.1 1.8L19 5l1 3.5-2.3 1.2a7 7 0 010 3.6L20 14.5 19 18l-2.4-1.2a7 7 0 01-3.1 1.8L12 21l-1.5-2.4a7 7 0 01-3.1-1.8L5 18l-1-3.5 2.3-1.2a7 7 0 010-3.6L4 8.5 5 5l2.4 1.2a7 7 0 013.1-1.8L12 2z" fill="#2E7BF6" stroke="none" stroke-width="0"/>
</g>
<text x="200" y="415" font-size="16" fill="#22C1A6" text-anchor="middle" font-weight="600" font-family="'Inter', 'Segoe UI', 'Helvetica Neue', sans-serif" dy="0.35em">Model</text>
<text x="200" y="433" font-size="11" fill="#718096" text-anchor="middle" font-weight="normal" font-family="'Inter', 'Segoe UI', 'Helvetica Neue', sans-serif" dy="0.35em">Structure to fit patterns</text>
<circle cx="600" cy="360" r="40" fill="#FF8A3D" opacity="0.15"/>
<circle cx="600" cy="360" r="40" fill="none" stroke="#FF8A3D" stroke-width="2.5"/>
<g transform="translate(588, 344) scale(1)">
<path d="M8 6l-6 6 6 6m8-12l6 6-6 6m-4-14l-2 16" fill="#2E7BF6" stroke="none" stroke-width="0"/>
</g>
<text x="600" y="415" font-size="16" fill="#FF8A3D" text-anchor="middle" font-weight="600" font-family="'Inter', 'Segoe UI', 'Helvetica Neue', sans-serif" dy="0.35em">Algorithm</text>
<text x="600" y="433" font-size="11" fill="#718096" text-anchor="middle" font-weight="normal" font-family="'Inter', 'Segoe UI', 'Helvetica Neue', sans-serif" dy="0.35em">How to optimize</text>
<circle cx="60" cy="60" r="4" fill="#2E7BF6" opacity="0.3"/>
<circle cx="740" cy="60" r="5" fill="#22C1A6" opacity="0.3"/>
</svg>