<?xml version="1.0" encoding="UTF-8"?>
<svg xmlns="http://www.w3.org/2000/svg" viewBox="0 0 800 450" width="800" height="450">
<defs>
<marker id="arrowhead" markerWidth="10" markerHeight="7" refX="9" refY="3.5" orient="auto">
  <polygon points="0 0, 10 3.5, 0 7" fill="#2D3748"/>
</marker>
<filter id="shadow" x="-4%" y="-4%" width="108%" height="108%">
  <feDropShadow dx="0" dy="2" stdDeviation="3" flood-opacity="0.08"/>
</filter>
</defs>
<rect x="0" y="0" width="800" height="450" rx="0" fill="#F8FAFE"/>
<text x="400" y="40" font-size="24" fill="#2D3748" text-anchor="middle" font-weight="bold" font-family="'Inter', 'Segoe UI', 'Helvetica Neue', sans-serif" dy="0.35em">Types of Data in ML</text>
<text x="400" y="63" font-size="12" fill="#718096" text-anchor="middle" font-weight="normal" font-family="'Inter', 'Segoe UI', 'Helvetica Neue', sans-serif" dy="0.35em">Machine learning can process many data formats</text>
<rect x="40" y="100" width="160" height="180" rx="14" fill="#2E7BF6" opacity="0.08"/>
<rect x="40" y="100" width="160" height="180" rx="14" fill="none" stroke="#2E7BF6" stroke-width="1.5"/>
<circle cx="120" cy="160" r="32" fill="#2E7BF6" opacity="0.15"/>
<g>
<rect x="100" y="140" width="40" height="32" rx="4" fill="#2E7BF6" opacity="0.3"/>
<circle cx="113" cy="150" r="5" fill="#2E7BF6" opacity="0.6"/>
<path d="M108,165 L118,155 L128,162 L138,148 L148,165" fill="none" stroke="#2E7BF6" stroke-width="1.5"/>
</g>
<text x="120" y="215" font-size="15" fill="#2D3748" text-anchor="middle" font-weight="600" font-family="'Inter', 'Segoe UI', 'Helvetica Neue', sans-serif" dy="0.35em">Images</text>
<text x="120" y="240" font-size="11" fill="#718096" text-anchor="middle" font-weight="normal" font-family="'Inter', 'Segoe UI', 'Helvetica Neue', sans-serif" dy="0.35em">Photos, medical scans</text>
<text x="120" y="256" font-size="11" fill="#718096" text-anchor="middle" font-weight="normal" font-family="'Inter', 'Segoe UI', 'Helvetica Neue', sans-serif" dy="0.35em"></text>
<rect x="230" y="100" width="160" height="180" rx="14" fill="#22C1A6" opacity="0.08"/>
<rect x="230" y="100" width="160" height="180" rx="14" fill="none" stroke="#22C1A6" stroke-width="1.5"/>
<circle cx="310" cy="160" r="32" fill="#22C1A6" opacity="0.15"/>
<g>
<rect x="285" y="138" width="50" height="36" rx="4" fill="#22C1A6" opacity="0.2"/>
<line x1="290" y1="150" x2="325" y2="150" stroke="#22C1A6" stroke-width="2"/>
<line x1="290" y1="158" x2="318" y2="158" stroke="#22C1A6" stroke-width="2"/>
<line x1="290" y1="166" x2="310" y2="166" stroke="#22C1A6" stroke-width="2"/>
</g>
<text x="310" y="215" font-size="15" fill="#2D3748" text-anchor="middle" font-weight="600" font-family="'Inter', 'Segoe UI', 'Helvetica Neue', sans-serif" dy="0.35em">Text</text>
<text x="310" y="240" font-size="11" fill="#718096" text-anchor="middle" font-weight="normal" font-family="'Inter', 'Segoe UI', 'Helvetica Neue', sans-serif" dy="0.35em">Articles, reviews, chat</text>
<text x="310" y="256" font-size="11" fill="#718096" text-anchor="middle" font-weight="normal" font-family="'Inter', 'Segoe UI', 'Helvetica Neue', sans-serif" dy="0.35em"></text>
<rect x="420" y="100" width="160" height="180" rx="14" fill="#FF8A3D" opacity="0.08"/>
<rect x="420" y="100" width="160" height="180" rx="14" fill="none" stroke="#FF8A3D" stroke-width="1.5"/>
<circle cx="500" cy="160" r="32" fill="#FF8A3D" opacity="0.15"/>
<g>
<text x="500" y="150" font-size="24" fill="#FF8A3D" text-anchor="middle" font-weight="bold" font-family="'Inter', 'Segoe UI', 'Helvetica Neue', sans-serif" dy="0.35em">42</text>
<text x="500" y="170" font-size="12" fill="#FF8A3D" text-anchor="middle" font-weight="normal" font-family="'Inter', 'Segoe UI', 'Helvetica Neue', sans-serif" dy="0.35em">.7  3.14</text>
</g>
<text x="500" y="215" font-size="15" fill="#2D3748" text-anchor="middle" font-weight="600" font-family="'Inter', 'Segoe UI', 'Helvetica Neue', sans-serif" dy="0.35em">Numbers</text>
<text x="500" y="240" font-size="11" fill="#718096" text-anchor="middle" font-weight="normal" font-family="'Inter', 'Segoe UI', 'Helvetica Neue', sans-serif" dy="0.35em">Sales, temperature, price</text>
<text x="500" y="256" font-size="11" fill="#718096" text-anchor="middle" font-weight="normal" font-family="'Inter', 'Segoe UI', 'Helvetica Neue', sans-serif" dy="0.35em"></text>
<rect x="610" y="100" width="160" height="180" rx="14" fill="#2E7BF6" opacity="0.08"/>
<rect x="610" y="100" width="160" height="180" rx="14" fill="none" stroke="#2E7BF6" stroke-width="1.5"/>
<circle cx="690" cy="160" r="32" fill="#2E7BF6" opacity="0.15"/>
<g>
<path d="M640,155 Q648,140 656,155 Q664,170 672,155 Q680,140 688,155" fill="none" stroke="#2E7BF6" stroke-width="2"/>
<path d="M644,165 Q652,155 660,165 Q668,175 676,165 Q684,155 690,165" fill="none" stroke="#2E7BF6" stroke-width="1.5" opacity="0.5"/>
</g>
<text x="690" y="215" font-size="15" fill="#2D3748" text-anchor="middle" font-weight="600" font-family="'Inter', 'Segoe UI', 'Helvetica Neue', sans-serif" dy="0.35em">Audio</text>
<text x="690" y="240" font-size="11" fill="#718096" text-anchor="middle" font-weight="normal" font-family="'Inter', 'Segoe UI', 'Helvetica Neue', sans-serif" dy="0.35em">Speech, music, sounds</text>
<text x="690" y="256" font-size="11" fill="#718096" text-anchor="middle" font-weight="normal" font-family="'Inter', 'Segoe UI', 'Helvetica Neue', sans-serif" dy="0.35em"></text>
<line x1="120" y1="310" x2="690" y2="310" stroke="#E2E8F0" stroke-width="1" stroke-dasharray="4,4"/>
<rect x="280" y="330" width="240" height="50" rx="10" fill="#EBF4FF" stroke="#2E7BF6" stroke-width="1.5"/>
<g transform="translate(300, 343) scale(0.9166666666666666)">
<path d="M12 2C8.5 2 6 4.5 6 7.5c0 1.5.5 2.8 1.4 3.8C6.5 12.5 6 14 6 15.5 6 18.5 8.5 21 12 21s6-2.5 6-6.5c0-1.5-.5-3-1.4-4C17.5 9.3 18 8 18 6.5 18 4.5 15.5 2 12 2zm0 2c1.5 0 3 .8 3.5 2-.5.2-1 .5-1.5.8-.5-.5-1.2-.8-2-.8s-1.5.3-2 .8c-.5-.3-1-.6-1.5-.8C9 4.8 10.5 4 12 4z" fill="#2E7BF6" stroke="none" stroke-width="0"/>
</g>
<text x="400" y="360" font-size="14" fill="#2D3748" text-anchor="middle" font-weight="500" font-family="'Inter', 'Segoe UI', 'Helvetica Neue', sans-serif" dy="0.35em">ML processes all types</text>
<line x1="400" y1="312" x2="400" y2="328" stroke="#718096" stroke-width="1.5" marker-end="url(#arrowhead)"/>
<text x="400" y="420" font-size="12" fill="#718096" text-anchor="middle" font-weight="normal" font-family="'Inter', 'Segoe UI', 'Helvetica Neue', sans-serif" dy="0.35em">Different data types require different preprocessing</text>
</svg>