<?xml version="1.0" encoding="UTF-8"?>
<svg xmlns="http://www.w3.org/2000/svg" viewBox="0 0 800 450" width="800" height="450">
<defs>
<marker id="arrowhead" markerWidth="10" markerHeight="7" refX="9" refY="3.5" orient="auto">
  <polygon points="0 0, 10 3.5, 0 7" fill="#2D3748"/>
</marker>
<filter id="shadow" x="-4%" y="-4%" width="108%" height="108%">
  <feDropShadow dx="0" dy="2" stdDeviation="3" flood-opacity="0.08"/>
</filter>
</defs>
<rect x="0" y="0" width="800" height="450" rx="0" fill="#F8FAFE"/>
<text x="400" y="35" font-size="20" fill="#2D3748" text-anchor="middle" font-weight="bold" font-family="'Inter', 'Segoe UI', 'Helvetica Neue', sans-serif" dy="0.35em">Gradient Descent: Rolling Down to the Minimum</text>
<path d="M80,100 Q200,80 300,180 Q400,340 500,350 Q550,355 600,300 Q680,180 750,200 L750,400 L80,400 Z" fill="#EBF4FF" stroke="none" stroke-width="1.5" opacity="0.3"/>
<path d="M80,100 Q200,80 300,180 Q400,340 500,350 Q550,355 600,300 Q680,180 750,200" fill="none" stroke="#2E7BF6" stroke-width="2.5"/>
<text x="400" y="430" font-size="13" fill="#718096" text-anchor="middle" font-weight="normal" font-family="'Inter', 'Segoe UI', 'Helvetica Neue', sans-serif" dy="0.35em">Parameter (w)</text>
<text x="30" y="250" font-size="13" fill="#718096" text-anchor="middle" font-weight="normal" font-family="'Inter', 'Segoe UI', 'Helvetica Neue', sans-serif" dy="0.35em">Loss</text>
<line x1="60" y1="400" x2="760" y2="400" stroke="#E2E8F0" stroke-width="1"/>
<line x1="60" y1="400" x2="60" y2="70" stroke="#E2E8F0" stroke-width="1"/>
<circle cx="140" cy="90" r="10" fill="#FF8A3D" opacity="0.9"/>
<text x="140" y="65" font-size="11" fill="#FF8A3D" text-anchor="middle" font-weight="600" font-family="'Inter', 'Segoe UI', 'Helvetica Neue', sans-serif" dy="0.35em">Start</text>
<circle cx="220" cy="110" r="8" fill="#FF8A3D" opacity="0.7"/>
<line x1="150" y1="93" x2="212" y2="108" stroke="#FF8A3D" stroke-width="1.5" marker-end="url(#arrowhead)"/>
<circle cx="300" cy="180" r="8" fill="#FF8A3D" opacity="0.6"/>
<line x1="228" y1="114" x2="292" y2="176" stroke="#FF8A3D" stroke-width="1.5" marker-end="url(#arrowhead)"/>
<circle cx="380" cy="290" r="8" fill="#FF8A3D" opacity="0.5"/>
<line x1="306" y1="186" x2="374" y2="285" stroke="#FF8A3D" stroke-width="1.5" marker-end="url(#arrowhead)"/>
<circle cx="440" cy="335" r="7" fill="#FF8A3D" opacity="0.5"/>
<line x1="386" y1="295" x2="434" y2="330" stroke="#FF8A3D" stroke-width="1.5" marker-end="url(#arrowhead)"/>
<circle cx="510" cy="352" r="12" fill="#22C1A6" opacity="0.9"/>
<text x="510" y="380" font-size="11" fill="#22C1A6" text-anchor="middle" font-weight="600" font-family="'Inter', 'Segoe UI', 'Helvetica Neue', sans-serif" dy="0.35em">Minimum</text>
<line x1="446" y1="338" x2="500" y2="350" stroke="#FF8A3D" stroke-width="1.5" marker-end="url(#arrowhead)"/>
<text x="160" y="135" font-size="11" fill="#2E7BF6" text-anchor="middle" font-weight="normal" font-family="'Inter', 'Segoe UI', 'Helvetica Neue', sans-serif" dy="0.35em">∇L</text>
<text x="260" y="185" font-size="11" fill="#2E7BF6" text-anchor="middle" font-weight="normal" font-family="'Inter', 'Segoe UI', 'Helvetica Neue', sans-serif" dy="0.35em">∇L</text>
<text x="350" y="310" font-size="11" fill="#2E7BF6" text-anchor="middle" font-weight="normal" font-family="'Inter', 'Segoe UI', 'Helvetica Neue', sans-serif" dy="0.35em">∇L</text>
<rect x="570" y="70" width="200" height="160" rx="8" fill="#FFFFFF" stroke="#E2E8F0" stroke-width="1.5" filter="url(#shadow)"/>
<text x="670" y="90" font-size="12" fill="#2D3748" text-anchor="middle" font-weight="600" font-family="'Inter', 'Segoe UI', 'Helvetica Neue', sans-serif" dy="0.35em">Loss vs. Iteration</text>
<line x1="590" y1="210" x2="750" y2="210" stroke="#E2E8F0" stroke-width="1.5"/>
<line x1="590" y1="210" x2="590" y2="105" stroke="#E2E8F0" stroke-width="1.5"/>
<text x="670" y="225" font-size="10" fill="#718096" text-anchor="middle" font-weight="normal" font-family="'Inter', 'Segoe UI', 'Helvetica Neue', sans-serif" dy="0.35em">Iterations</text>
<path d="M595,115 Q620,130 640,155 Q670,185 720,200 L745,205" fill="none" stroke="#FF8A3D" stroke-width="2"/>
<text x="575" y="115" font-size="9" fill="#718096" text-anchor="end" font-weight="normal" font-family="'Inter', 'Segoe UI', 'Helvetica Neue', sans-serif" dy="0.35em">High</text>
<text x="575" y="205" font-size="9" fill="#718096" text-anchor="end" font-weight="normal" font-family="'Inter', 'Segoe UI', 'Helvetica Neue', sans-serif" dy="0.35em">Low</text>
<text x="400" y="410" font-size="12" fill="#718096" text-anchor="middle" font-weight="normal" font-family="'Inter', 'Segoe UI', 'Helvetica Neue', sans-serif" dy="0.35em">Step size = Learning Rate × Gradient</text>
</svg>