<?xml version="1.0" encoding="UTF-8"?>
<svg xmlns="http://www.w3.org/2000/svg" viewBox="0 0 800 450" width="800" height="450">
<defs>
<marker id="arrowhead" markerWidth="10" markerHeight="7" refX="9" refY="3.5" orient="auto">
  <polygon points="0 0, 10 3.5, 0 7" fill="#2D3748"/>
</marker>
<filter id="shadow" x="-4%" y="-4%" width="108%" height="108%">
  <feDropShadow dx="0" dy="2" stdDeviation="3" flood-opacity="0.08"/>
</filter>
</defs>
<rect x="0" y="0" width="800" height="450" rx="0" fill="#F8FAFE"/>
<text x="400" y="35" font-size="22" fill="#2D3748" text-anchor="middle" font-weight="bold" font-family="'Inter', 'Segoe UI', 'Helvetica Neue', sans-serif" dy="0.35em">Backpropagation</text>
<text x="400" y="58" font-size="12" fill="#718096" text-anchor="middle" font-weight="normal" font-family="'Inter', 'Segoe UI', 'Helvetica Neue', sans-serif" dy="0.35em">Forward pass (blue) → compute loss → Backward pass (red)</text>
<line x1="142" y1="80" x2="248" y2="80" stroke="#2E7BF6" stroke-width="2" marker-end="url(#arrowhead)"/>
<line x1="292" y1="80" x2="398" y2="80" stroke="#2E7BF6" stroke-width="2" marker-end="url(#arrowhead)"/>
<line x1="442" y1="80" x2="548" y2="80" stroke="#2E7BF6" stroke-width="2" marker-end="url(#arrowhead)"/>
<line x1="592" y1="80" x2="678" y2="80" stroke="#2E7BF6" stroke-width="2" marker-end="url(#arrowhead)"/>
<text x="400" y="72" font-size="11" fill="#2E7BF6" text-anchor="middle" font-weight="600" font-family="'Inter', 'Segoe UI', 'Helvetica Neue', sans-serif" dy="0.35em">Forward</text>
<line x1="678" y1="370" x2="592" y2="370" stroke="#E53E3E" stroke-width="2" marker-end="url(#arrowhead)"/>
<line x1="548" y1="370" x2="442" y2="370" stroke="#E53E3E" stroke-width="2" marker-end="url(#arrowhead)"/>
<line x1="398" y1="370" x2="292" y2="370" stroke="#E53E3E" stroke-width="2" marker-end="url(#arrowhead)"/>
<line x1="248" y1="370" x2="142" y2="370" stroke="#E53E3E" stroke-width="2" marker-end="url(#arrowhead)"/>
<text x="400" y="390" font-size="11" fill="#E53E3E" text-anchor="middle" font-weight="600" font-family="'Inter', 'Segoe UI', 'Helvetica Neue', sans-serif" dy="0.35em">Backward (gradient flow)</text>
<line x1="134" y1="140" x2="256" y2="130" stroke="#E2E8F0" stroke-width="0.7"/>
<line x1="134" y1="140" x2="256" y2="190" stroke="#E2E8F0" stroke-width="0.7"/>
<line x1="134" y1="140" x2="256" y2="250" stroke="#E2E8F0" stroke-width="0.7"/>
<line x1="134" y1="140" x2="256" y2="310" stroke="#E2E8F0" stroke-width="0.7"/>
<line x1="134" y1="220" x2="256" y2="130" stroke="#E2E8F0" stroke-width="0.7"/>
<line x1="134" y1="220" x2="256" y2="190" stroke="#E2E8F0" stroke-width="0.7"/>
<line x1="134" y1="220" x2="256" y2="250" stroke="#E2E8F0" stroke-width="0.7"/>
<line x1="134" y1="220" x2="256" y2="310" stroke="#E2E8F0" stroke-width="0.7"/>
<line x1="134" y1="300" x2="256" y2="130" stroke="#E2E8F0" stroke-width="0.7"/>
<line x1="134" y1="300" x2="256" y2="190" stroke="#E2E8F0" stroke-width="0.7"/>
<line x1="134" y1="300" x2="256" y2="250" stroke="#E2E8F0" stroke-width="0.7"/>
<line x1="134" y1="300" x2="256" y2="310" stroke="#E2E8F0" stroke-width="0.7"/>
<line x1="284" y1="130" x2="406" y2="130" stroke="#E2E8F0" stroke-width="0.7"/>
<line x1="284" y1="130" x2="406" y2="190" stroke="#E2E8F0" stroke-width="0.7"/>
<line x1="284" y1="130" x2="406" y2="250" stroke="#E2E8F0" stroke-width="0.7"/>
<line x1="284" y1="130" x2="406" y2="310" stroke="#E2E8F0" stroke-width="0.7"/>
<line x1="284" y1="190" x2="406" y2="130" stroke="#E2E8F0" stroke-width="0.7"/>
<line x1="284" y1="190" x2="406" y2="190" stroke="#E2E8F0" stroke-width="0.7"/>
<line x1="284" y1="190" x2="406" y2="250" stroke="#E2E8F0" stroke-width="0.7"/>
<line x1="284" y1="190" x2="406" y2="310" stroke="#E2E8F0" stroke-width="0.7"/>
<line x1="284" y1="250" x2="406" y2="130" stroke="#E2E8F0" stroke-width="0.7"/>
<line x1="284" y1="250" x2="406" y2="190" stroke="#E2E8F0" stroke-width="0.7"/>
<line x1="284" y1="250" x2="406" y2="250" stroke="#E2E8F0" stroke-width="0.7"/>
<line x1="284" y1="250" x2="406" y2="310" stroke="#E2E8F0" stroke-width="0.7"/>
<line x1="284" y1="310" x2="406" y2="130" stroke="#E2E8F0" stroke-width="0.7"/>
<line x1="284" y1="310" x2="406" y2="190" stroke="#E2E8F0" stroke-width="0.7"/>
<line x1="284" y1="310" x2="406" y2="250" stroke="#E2E8F0" stroke-width="0.7"/>
<line x1="284" y1="310" x2="406" y2="310" stroke="#E2E8F0" stroke-width="0.7"/>
<line x1="434" y1="130" x2="556" y2="140" stroke="#E2E8F0" stroke-width="0.7"/>
<line x1="434" y1="130" x2="556" y2="220" stroke="#E2E8F0" stroke-width="0.7"/>
<line x1="434" y1="130" x2="556" y2="300" stroke="#E2E8F0" stroke-width="0.7"/>
<line x1="434" y1="190" x2="556" y2="140" stroke="#E2E8F0" stroke-width="0.7"/>
<line x1="434" y1="190" x2="556" y2="220" stroke="#E2E8F0" stroke-width="0.7"/>
<line x1="434" y1="190" x2="556" y2="300" stroke="#E2E8F0" stroke-width="0.7"/>
<line x1="434" y1="250" x2="556" y2="140" stroke="#E2E8F0" stroke-width="0.7"/>
<line x1="434" y1="250" x2="556" y2="220" stroke="#E2E8F0" stroke-width="0.7"/>
<line x1="434" y1="250" x2="556" y2="300" stroke="#E2E8F0" stroke-width="0.7"/>
<line x1="434" y1="310" x2="556" y2="140" stroke="#E2E8F0" stroke-width="0.7"/>
<line x1="434" y1="310" x2="556" y2="220" stroke="#E2E8F0" stroke-width="0.7"/>
<line x1="434" y1="310" x2="556" y2="300" stroke="#E2E8F0" stroke-width="0.7"/>
<line x1="584" y1="140" x2="686" y2="160" stroke="#E2E8F0" stroke-width="0.7"/>
<line x1="584" y1="140" x2="686" y2="280" stroke="#E2E8F0" stroke-width="0.7"/>
<line x1="584" y1="220" x2="686" y2="160" stroke="#E2E8F0" stroke-width="0.7"/>
<line x1="584" y1="220" x2="686" y2="280" stroke="#E2E8F0" stroke-width="0.7"/>
<line x1="584" y1="300" x2="686" y2="160" stroke="#E2E8F0" stroke-width="0.7"/>
<line x1="584" y1="300" x2="686" y2="280" stroke="#E2E8F0" stroke-width="0.7"/>
<circle cx="120" cy="140" r="14" fill="#22C1A6" opacity="0.2"/>
<circle cx="120" cy="140" r="14" fill="none" stroke="#22C1A6" stroke-width="1.8"/>
<circle cx="120" cy="220" r="14" fill="#22C1A6" opacity="0.2"/>
<circle cx="120" cy="220" r="14" fill="none" stroke="#22C1A6" stroke-width="1.8"/>
<circle cx="120" cy="300" r="14" fill="#22C1A6" opacity="0.2"/>
<circle cx="120" cy="300" r="14" fill="none" stroke="#22C1A6" stroke-width="1.8"/>
<circle cx="270" cy="130" r="14" fill="#2E7BF6" opacity="0.2"/>
<circle cx="270" cy="130" r="14" fill="none" stroke="#2E7BF6" stroke-width="1.8"/>
<circle cx="270" cy="190" r="14" fill="#2E7BF6" opacity="0.2"/>
<circle cx="270" cy="190" r="14" fill="none" stroke="#2E7BF6" stroke-width="1.8"/>
<circle cx="270" cy="250" r="14" fill="#2E7BF6" opacity="0.2"/>
<circle cx="270" cy="250" r="14" fill="none" stroke="#2E7BF6" stroke-width="1.8"/>
<circle cx="270" cy="310" r="14" fill="#2E7BF6" opacity="0.2"/>
<circle cx="270" cy="310" r="14" fill="none" stroke="#2E7BF6" stroke-width="1.8"/>
<circle cx="420" cy="130" r="14" fill="#2E7BF6" opacity="0.2"/>
<circle cx="420" cy="130" r="14" fill="none" stroke="#2E7BF6" stroke-width="1.8"/>
<circle cx="420" cy="190" r="14" fill="#2E7BF6" opacity="0.2"/>
<circle cx="420" cy="190" r="14" fill="none" stroke="#2E7BF6" stroke-width="1.8"/>
<circle cx="420" cy="250" r="14" fill="#2E7BF6" opacity="0.2"/>
<circle cx="420" cy="250" r="14" fill="none" stroke="#2E7BF6" stroke-width="1.8"/>
<circle cx="420" cy="310" r="14" fill="#2E7BF6" opacity="0.2"/>
<circle cx="420" cy="310" r="14" fill="none" stroke="#2E7BF6" stroke-width="1.8"/>
<circle cx="570" cy="140" r="14" fill="#2E7BF6" opacity="0.2"/>
<circle cx="570" cy="140" r="14" fill="none" stroke="#2E7BF6" stroke-width="1.8"/>
<circle cx="570" cy="220" r="14" fill="#2E7BF6" opacity="0.2"/>
<circle cx="570" cy="220" r="14" fill="none" stroke="#2E7BF6" stroke-width="1.8"/>
<circle cx="570" cy="300" r="14" fill="#2E7BF6" opacity="0.2"/>
<circle cx="570" cy="300" r="14" fill="none" stroke="#2E7BF6" stroke-width="1.8"/>
<circle cx="700" cy="160" r="14" fill="#FF8A3D" opacity="0.2"/>
<circle cx="700" cy="160" r="14" fill="none" stroke="#FF8A3D" stroke-width="1.8"/>
<circle cx="700" cy="280" r="14" fill="#FF8A3D" opacity="0.2"/>
<circle cx="700" cy="280" r="14" fill="none" stroke="#FF8A3D" stroke-width="1.8"/>
<rect x="720" y="180" width="65" height="80" rx="8" fill="#FED7D7" stroke="#E53E3E" stroke-width="1.5"/>
<text x="752" y="210" font-size="13" fill="#E53E3E" text-anchor="middle" font-weight="600" font-family="'Inter', 'Segoe UI', 'Helvetica Neue', sans-serif" dy="0.35em">Loss</text>
<text x="752" y="232" font-size="12" fill="#E53E3E" text-anchor="middle" font-weight="normal" font-family="'Inter', 'Segoe UI', 'Helvetica Neue', sans-serif" dy="0.35em">= 0.35</text>
<text x="752" y="250" font-size="10" fill="#718096" text-anchor="middle" font-weight="normal" font-family="'Inter', 'Segoe UI', 'Helvetica Neue', sans-serif" dy="0.35em">(error)</text>
<text x="120" y="420" font-size="11" fill="#2D3748" text-anchor="middle" font-weight="normal" font-family="'Inter', 'Segoe UI', 'Helvetica Neue', sans-serif" dy="0.35em">Input</text>
<text x="700" y="420" font-size="11" fill="#2D3748" text-anchor="middle" font-weight="normal" font-family="'Inter', 'Segoe UI', 'Helvetica Neue', sans-serif" dy="0.35em">Output</text>
<text x="400" y="420" font-size="12" fill="#718096" text-anchor="middle" font-weight="normal" font-family="'Inter', 'Segoe UI', 'Helvetica Neue', sans-serif" dy="0.35em">Adjust weights to reduce loss</text>
</svg>