<?xml version="1.0" encoding="UTF-8"?>
<svg xmlns="http://www.w3.org/2000/svg" viewBox="0 0 800 450" width="800" height="450">
<defs>
<marker id="arrowhead" markerWidth="10" markerHeight="7" refX="9" refY="3.5" orient="auto">
  <polygon points="0 0, 10 3.5, 0 7" fill="#2D3748"/>
</marker>
<filter id="shadow" x="-4%" y="-4%" width="108%" height="108%">
  <feDropShadow dx="0" dy="2" stdDeviation="3" flood-opacity="0.08"/>
</filter>
</defs>
<rect x="0" y="0" width="800" height="450" rx="0" fill="#F8FAFE"/>
<text x="400" y="30" font-size="20" fill="#2D3748" text-anchor="middle" font-weight="bold" font-family="'Inter', 'Segoe UI', 'Helvetica Neue', sans-serif" dy="0.35em">Word Vector Analogy: King − Man + Woman ≈ Queen</text>
<line x1="150" y1="70" x2="150" y2="360" stroke="#E2E8F0" stroke-width="0.5"/>
<line x1="200" y1="70" x2="200" y2="360" stroke="#E2E8F0" stroke-width="0.5"/>
<line x1="250" y1="70" x2="250" y2="360" stroke="#E2E8F0" stroke-width="0.5"/>
<line x1="300" y1="70" x2="300" y2="360" stroke="#E2E8F0" stroke-width="0.5"/>
<line x1="350" y1="70" x2="350" y2="360" stroke="#E2E8F0" stroke-width="0.5"/>
<line x1="400" y1="70" x2="400" y2="360" stroke="#E2E8F0" stroke-width="0.5"/>
<line x1="450" y1="70" x2="450" y2="360" stroke="#E2E8F0" stroke-width="0.5"/>
<line x1="500" y1="70" x2="500" y2="360" stroke="#E2E8F0" stroke-width="0.5"/>
<line x1="550" y1="70" x2="550" y2="360" stroke="#E2E8F0" stroke-width="0.5"/>
<line x1="600" y1="70" x2="600" y2="360" stroke="#E2E8F0" stroke-width="0.5"/>
<line x1="650" y1="70" x2="650" y2="360" stroke="#E2E8F0" stroke-width="0.5"/>
<line x1="700" y1="70" x2="700" y2="360" stroke="#E2E8F0" stroke-width="0.5"/>
<line x1="750" y1="70" x2="750" y2="360" stroke="#E2E8F0" stroke-width="0.5"/>
<line x1="150" y1="70" x2="750" y2="70" stroke="#E2E8F0" stroke-width="0.5"/>
<line x1="150" y1="120" x2="750" y2="120" stroke="#E2E8F0" stroke-width="0.5"/>
<line x1="150" y1="170" x2="750" y2="170" stroke="#E2E8F0" stroke-width="0.5"/>
<line x1="150" y1="220" x2="750" y2="220" stroke="#E2E8F0" stroke-width="0.5"/>
<line x1="150" y1="270" x2="750" y2="270" stroke="#E2E8F0" stroke-width="0.5"/>
<line x1="150" y1="320" x2="750" y2="320" stroke="#E2E8F0" stroke-width="0.5"/>
<line x1="500" y1="280" x2="600" y2="280" stroke="#FF8A3D" stroke-width="2.5" marker-end="url(#arrowhead)"/>
<text x="550" y="300" font-size="11" fill="#FF8A3D" text-anchor="middle" font-weight="normal" font-family="'Inter', 'Segoe UI', 'Helvetica Neue', sans-serif" dy="0.35em">gender direction</text>
<line x1="500" y1="100" x2="600" y2="100" stroke="#FF8A3D" stroke-width="2.5" marker-end="url(#arrowhead)"/>
<text x="550" y="82" font-size="11" fill="#FF8A3D" text-anchor="middle" font-weight="normal" font-family="'Inter', 'Segoe UI', 'Helvetica Neue', sans-serif" dy="0.35em">gender direction</text>
<line x1="480" y1="120" x2="480" y2="260" stroke="#2E7BF6" stroke-width="2" marker-end="url(#arrowhead)"/>
<text x="450" y="190" font-size="11" fill="#2E7BF6" text-anchor="middle" font-weight="normal" font-family="'Inter', 'Segoe UI', 'Helvetica Neue', sans-serif" dy="0.35em">royalty</text>
<line x1="620" y1="120" x2="620" y2="260" stroke="#2E7BF6" stroke-width="2" marker-end="url(#arrowhead)"/>
<text x="650" y="190" font-size="11" fill="#2E7BF6" text-anchor="middle" font-weight="normal" font-family="'Inter', 'Segoe UI', 'Helvetica Neue', sans-serif" dy="0.35em">royalty</text>
<circle cx="480" cy="100" r="20" fill="#2E7BF6" opacity="0.15"/>
<circle cx="480" cy="100" r="20" fill="none" stroke="#2E7BF6" stroke-width="2.5"/>
<text x="480" y="100" font-size="12" fill="#2E7BF6" text-anchor="middle" font-weight="bold" font-family="'Inter', 'Segoe UI', 'Helvetica Neue', sans-serif" dy="0.35em">King</text>
<circle cx="620" cy="100" r="20" fill="#9F7AEA" opacity="0.15"/>
<circle cx="620" cy="100" r="20" fill="none" stroke="#9F7AEA" stroke-width="2.5"/>
<text x="620" y="100" font-size="12" fill="#9F7AEA" text-anchor="middle" font-weight="bold" font-family="'Inter', 'Segoe UI', 'Helvetica Neue', sans-serif" dy="0.35em">Queen</text>
<circle cx="480" cy="280" r="20" fill="#22C1A6" opacity="0.15"/>
<circle cx="480" cy="280" r="20" fill="none" stroke="#22C1A6" stroke-width="2.5"/>
<text x="480" y="280" font-size="12" fill="#22C1A6" text-anchor="middle" font-weight="bold" font-family="'Inter', 'Segoe UI', 'Helvetica Neue', sans-serif" dy="0.35em">Man</text>
<circle cx="620" cy="280" r="20" fill="#FF8A3D" opacity="0.15"/>
<circle cx="620" cy="280" r="20" fill="none" stroke="#FF8A3D" stroke-width="2.5"/>
<text x="620" y="280" font-size="12" fill="#FF8A3D" text-anchor="middle" font-weight="bold" font-family="'Inter', 'Segoe UI', 'Helvetica Neue', sans-serif" dy="0.35em">Woman</text>
<rect x="180" y="385" width="440" height="45" rx="10" fill="#FFFFFF" stroke="#E2E8F0" stroke-width="1.5"/>
<text x="400" y="412" font-size="16" fill="#2D3748" text-anchor="middle" font-weight="600" font-family="'JetBrains Mono', 'Consolas', monospace" dy="0.35em">King − Man + Woman ≈ Queen</text>
</svg>