<?xml version="1.0" encoding="UTF-8"?>
<svg xmlns="http://www.w3.org/2000/svg" viewBox="0 0 800 450" width="800" height="450">
<defs>
<marker id="arrowhead" markerWidth="10" markerHeight="7" refX="9" refY="3.5" orient="auto">
  <polygon points="0 0, 10 3.5, 0 7" fill="#2D3748"/>
</marker>
<filter id="shadow" x="-4%" y="-4%" width="108%" height="108%">
  <feDropShadow dx="0" dy="2" stdDeviation="3" flood-opacity="0.08"/>
</filter>
</defs>
<rect x="0" y="0" width="800" height="450" rx="0" fill="#F8FAFE"/>
<text x="400" y="35" font-size="20" fill="#2D3748" text-anchor="middle" font-weight="bold" font-family="'Inter', 'Segoe UI', 'Helvetica Neue', sans-serif" dy="0.35em">Positional Encoding: Giving Words Their Position</text>
<rect x="140" y="100" width="100" height="45" rx="8" fill="#EBF4FF" stroke="#2E7BF6" stroke-width="1.5"/>
<text x="190" y="115" font-size="14" fill="#2E7BF6" text-anchor="middle" font-weight="600" font-family="'Inter', 'Segoe UI', 'Helvetica Neue', sans-serif" dy="0.35em">I</text>
<text x="190" y="135" font-size="10" fill="#718096" text-anchor="middle" font-weight="normal" font-family="'Inter', 'Segoe UI', 'Helvetica Neue', sans-serif" dy="0.35em">embedding</text>
<text x="190" y="162" font-size="20" fill="#2D3748" text-anchor="middle" font-weight="bold" font-family="'Inter', 'Segoe UI', 'Helvetica Neue', sans-serif" dy="0.35em">+</text>
<rect x="140" y="178" width="100" height="45" rx="8" fill="#FFF3EB" stroke="#FF8A3D" stroke-width="1.5"/>
<text x="190" y="195" font-size="13" fill="#FF8A3D" text-anchor="middle" font-weight="600" font-family="'Inter', 'Segoe UI', 'Helvetica Neue', sans-serif" dy="0.35em">pos = 1</text>
<text x="190" y="215" font-size="10" fill="#718096" text-anchor="middle" font-weight="normal" font-family="'Inter', 'Segoe UI', 'Helvetica Neue', sans-serif" dy="0.35em">sin/cos</text>
<text x="190" y="240" font-size="18" fill="#2D3748" text-anchor="middle" font-weight="bold" font-family="'Inter', 'Segoe UI', 'Helvetica Neue', sans-serif" dy="0.35em">=</text>
<rect x="140" y="255" width="100" height="40" rx="8" fill="#E6FAF5" stroke="#22C1A6" stroke-width="1.5"/>
<text x="190" y="278" font-size="11" fill="#22C1A6" text-anchor="middle" font-weight="500" font-family="'Inter', 'Segoe UI', 'Helvetica Neue', sans-serif" dy="0.35em">input vector</text>
<rect x="290" y="100" width="100" height="45" rx="8" fill="#EBF4FF" stroke="#2E7BF6" stroke-width="1.5"/>
<text x="340" y="115" font-size="14" fill="#2E7BF6" text-anchor="middle" font-weight="600" font-family="'Inter', 'Segoe UI', 'Helvetica Neue', sans-serif" dy="0.35em">love</text>
<text x="340" y="135" font-size="10" fill="#718096" text-anchor="middle" font-weight="normal" font-family="'Inter', 'Segoe UI', 'Helvetica Neue', sans-serif" dy="0.35em">embedding</text>
<text x="340" y="162" font-size="20" fill="#2D3748" text-anchor="middle" font-weight="bold" font-family="'Inter', 'Segoe UI', 'Helvetica Neue', sans-serif" dy="0.35em">+</text>
<rect x="290" y="178" width="100" height="45" rx="8" fill="#FFF3EB" stroke="#FF8A3D" stroke-width="1.5"/>
<text x="340" y="195" font-size="13" fill="#FF8A3D" text-anchor="middle" font-weight="600" font-family="'Inter', 'Segoe UI', 'Helvetica Neue', sans-serif" dy="0.35em">pos = 2</text>
<text x="340" y="215" font-size="10" fill="#718096" text-anchor="middle" font-weight="normal" font-family="'Inter', 'Segoe UI', 'Helvetica Neue', sans-serif" dy="0.35em">sin/cos</text>
<text x="340" y="240" font-size="18" fill="#2D3748" text-anchor="middle" font-weight="bold" font-family="'Inter', 'Segoe UI', 'Helvetica Neue', sans-serif" dy="0.35em">=</text>
<rect x="290" y="255" width="100" height="40" rx="8" fill="#E6FAF5" stroke="#22C1A6" stroke-width="1.5"/>
<text x="340" y="278" font-size="11" fill="#22C1A6" text-anchor="middle" font-weight="500" font-family="'Inter', 'Segoe UI', 'Helvetica Neue', sans-serif" dy="0.35em">input vector</text>
<rect x="440" y="100" width="100" height="45" rx="8" fill="#EBF4FF" stroke="#2E7BF6" stroke-width="1.5"/>
<text x="490" y="115" font-size="14" fill="#2E7BF6" text-anchor="middle" font-weight="600" font-family="'Inter', 'Segoe UI', 'Helvetica Neue', sans-serif" dy="0.35em">deep</text>
<text x="490" y="135" font-size="10" fill="#718096" text-anchor="middle" font-weight="normal" font-family="'Inter', 'Segoe UI', 'Helvetica Neue', sans-serif" dy="0.35em">embedding</text>
<text x="490" y="162" font-size="20" fill="#2D3748" text-anchor="middle" font-weight="bold" font-family="'Inter', 'Segoe UI', 'Helvetica Neue', sans-serif" dy="0.35em">+</text>
<rect x="440" y="178" width="100" height="45" rx="8" fill="#FFF3EB" stroke="#FF8A3D" stroke-width="1.5"/>
<text x="490" y="195" font-size="13" fill="#FF8A3D" text-anchor="middle" font-weight="600" font-family="'Inter', 'Segoe UI', 'Helvetica Neue', sans-serif" dy="0.35em">pos = 3</text>
<text x="490" y="215" font-size="10" fill="#718096" text-anchor="middle" font-weight="normal" font-family="'Inter', 'Segoe UI', 'Helvetica Neue', sans-serif" dy="0.35em">sin/cos</text>
<text x="490" y="240" font-size="18" fill="#2D3748" text-anchor="middle" font-weight="bold" font-family="'Inter', 'Segoe UI', 'Helvetica Neue', sans-serif" dy="0.35em">=</text>
<rect x="440" y="255" width="100" height="40" rx="8" fill="#E6FAF5" stroke="#22C1A6" stroke-width="1.5"/>
<text x="490" y="278" font-size="11" fill="#22C1A6" text-anchor="middle" font-weight="500" font-family="'Inter', 'Segoe UI', 'Helvetica Neue', sans-serif" dy="0.35em">input vector</text>
<rect x="590" y="100" width="100" height="45" rx="8" fill="#EBF4FF" stroke="#2E7BF6" stroke-width="1.5"/>
<text x="640" y="115" font-size="14" fill="#2E7BF6" text-anchor="middle" font-weight="600" font-family="'Inter', 'Segoe UI', 'Helvetica Neue', sans-serif" dy="0.35em">learning</text>
<text x="640" y="135" font-size="10" fill="#718096" text-anchor="middle" font-weight="normal" font-family="'Inter', 'Segoe UI', 'Helvetica Neue', sans-serif" dy="0.35em">embedding</text>
<text x="640" y="162" font-size="20" fill="#2D3748" text-anchor="middle" font-weight="bold" font-family="'Inter', 'Segoe UI', 'Helvetica Neue', sans-serif" dy="0.35em">+</text>
<rect x="590" y="178" width="100" height="45" rx="8" fill="#FFF3EB" stroke="#FF8A3D" stroke-width="1.5"/>
<text x="640" y="195" font-size="13" fill="#FF8A3D" text-anchor="middle" font-weight="600" font-family="'Inter', 'Segoe UI', 'Helvetica Neue', sans-serif" dy="0.35em">pos = 4</text>
<text x="640" y="215" font-size="10" fill="#718096" text-anchor="middle" font-weight="normal" font-family="'Inter', 'Segoe UI', 'Helvetica Neue', sans-serif" dy="0.35em">sin/cos</text>
<text x="640" y="240" font-size="18" fill="#2D3748" text-anchor="middle" font-weight="bold" font-family="'Inter', 'Segoe UI', 'Helvetica Neue', sans-serif" dy="0.35em">=</text>
<rect x="590" y="255" width="100" height="40" rx="8" fill="#E6FAF5" stroke="#22C1A6" stroke-width="1.5"/>
<text x="640" y="278" font-size="11" fill="#22C1A6" text-anchor="middle" font-weight="500" font-family="'Inter', 'Segoe UI', 'Helvetica Neue', sans-serif" dy="0.35em">input vector</text>
<text x="80" y="350" font-size="12" fill="#718096" text-anchor="start" font-weight="normal" font-family="'Inter', 'Segoe UI', 'Helvetica Neue', sans-serif" dy="0.35em">Encoding Pattern:</text>
<path d="M120,370 L120,370 L125,373.3179226538683 L130,376.54389393592305 L135,379.5885107720841 L140,382.36739606139474 L145,384.80353706392077 L150,386.8294196961579 L155,388.3888995850751 L160,389.43875802726626 L165,389.94989973208106 L170,389.9081591550353 L175,389.31469307515 L180,388.18594853651365 L185,386.5532070425192 L190,384.4617176347665 L195,381.96944288207914 L200,379.14545253271626 L205,376.06800934735713 L210,372.8224001611973 L215,369.4985722840966 L220,366.1886407424903 L225,362.9843354462076 L230,359.9744590282331 L235,357.24242580966296 L240,354.8639500938414 L245,352.9049478552232 L250,351.41970997458475 L255,350.44939764669806 L260,350.02090165804145 L265,350.14609714799695 L270,350.82151450673723 L275,352.0284355303854 L280,353.7334121686484 L285,355.8891934885922 L290,358.4360351651138 L295,361.30335520749844 L300,364.41169003602147 L305,367.6748966987954 L310,371.00254019764344 L315,374.3023997617563 L320,377.4830246114244 L325,380.4562683825936 L330,383.13973197437576 L335,385.4590471195697 L340,387.3499373923761 L345,388.7599995354948 L350,389.65015573972744 L355,389.9957366282844 L360,389.78716493246765 L365,389.03022091166 L370,387.74588216189386 L375,385.9697422524698 L380,383.7510243022612 L385,381.1512168329946 L390,378.24236970483514 L395,375.10509735993037 L400,371.826344711095 L405,368.49697759076383 L410,365.20926453739366 L415,362.05431970792074 L420,359.1195777822126 L425,356.4863708388434 L430,354.2276743555355 L435,352.4060848005666 L440,351.0720848632378 L445,350.2626444000025 L450,350.00019586898594 L455,350.29201264722997 L460,351.1300074596903 L465,352.49095650623144 L470,354.3371430752682 L475,356.6174028072431 L480,359.2685416399913 L485,362.21708713971304 L490,365.38132468197665 L495,368.67356205297597 L500,372.00255971093145 L505,375.27605935649535 L510,378.4033407365328 L515,381.2977358232023 L520,383.8790306915411 L525,386.0756885310324 L530,387.8268321836416 L535,389.0839312651802 L540,389.8121471138974 L545,389.99129829301756 L550,389.6164198897321 L555,388.69790111049366 L560,387.2611973593604 L565,385.3461247787165 L570,383.00575680314233 L575,380.3049533068281 L580,377.3185631070586 L585,374.1293496387559 L590,370.8256972869733 L595,367.49916194298123 L600,364.2419336666987 L605,361.14428177406785 L610,358.2920531550385 L615,355.76429315261754 L620,353.6310549368411 L625,351.95145808366345 L630,350.77205016240885 L635,350.12551673799265 L640,350.0297755383127 L645,350.48747989063685 L650,351.4859451885194 L655,352.9975004271099 L660,354.98025506456645 L665,357.3792599571315 L670,360.1280301942536 L675,363.1503876306077 L680,366.3625720519347 L685,369.6755624668274 L690,372.99754419325905 L695,376.23645336815895 L700,379.30252836267636 L705,382.110797394392 L710,384.5834333959428 L715,386.6519108783234 L720,388.25890501455257" fill="none" stroke="#FF8A3D" stroke-width="2"/>
<path d="M120,370 L120,390 L125,389.7228646312585 L130,388.89913892629477 L135,387.55165123780745 L140,385.71774521553897 L145,383.44824488166114 L150,380.80604611736277 L155,377.8643735955271 L160,374.7047514660598 L165,371.41474403335405 L170,368.08552903971247 L175,364.80937080762334 L180,361.67706326905716 L185,358.77541374448515 L190,356.18483720500245 L195,353.9771276890613 L200,352.21346863573916 L205,350.9427372752437 L210,350.2001500679911 L215,350.0062867319319 L220,350.36651990577843 L225,351.27086625418406 L230,352.69426314127526 L235,354.5972632049351 L240,356.92712758272773 L245,359.6192874923076 L250,362.59913366074926 L255,365.7840840113844 L260,369.0858723052284 L265,372.4129943106491 L270,375.6732437092645 L275,378.7762674591472 L280,381.63606979718344 L285,384.1733954858252 L290,386.3179262560387 L295,388.0102295752457 L300,389.20340573300734 L305,389.86438759787796 L310,389.9748570245724 L315,389.5317525145605 L320,388.5473540610195 L325,387.04894282679055 L330,385.0780450868661 L335,382.68928138843665 L340,379.94885282234236 L345,376.9327063567005 L350,373.72443007780464 L355,370.4129366686123 L360,367.0899993238277 L365,363.84770839008604 L370,360.7759192167362 L375,357.9597619463035 L380,355.4772822571455 L385,353.3972784416669 L390,351.77739476230647 L395,350.6625239251439 L400,350.08356294423487 L405,350.0565568760724 L410,350.58225415432247 L415,351.6460858480796 L420,353.21856941847096 L425,355.2561257840845 L430,357.70228705144865 L435,360.48926144008016 L440,363.5398120324924 L445,366.7693972823561 L450,370.08851395976103 L455,373.4051776022782 L460,376.62747172975156 L465,379.6660951750601 L470,382.43683693530556 L475,384.8629099565467 L480,386.87707917464985 L485,388.4235248367184 L490,389.45938946387275 L495,389.9559655835716 L500,389.8994913152109 L505,389.29153176050926 L510,388.1489356290039 L515,386.5033683007176 L520,384.4004342664817 L525,381.89841326619785 L530,379.06664515111737 L535,375.9836082313165 L540,372.73474436415665 L545,369.4100910582194 L550,366.1017862154925 L555,362.9015146642259 L560,359.8979672480629 L565,357.17438288907454 L570,354.80624174282354 L575,352.8591733762898 L580,351.3871379404456 L585,350.4309307436223 L590,350.01705166922847 L595,350.1569707702537 L600,350.84681039353234 L605,352.0674526432274 L610,353.78506920534176 L615,355.95205884994573 L620,358.5083666296176 L625,361.38314821444374 L630,364.49673323896803 L635,367.7628332498025 L640,371.0909330638621 L645,374.3887992642292 L650,377.5650363143538 L655,380.5316194516263 L660,383.2063341648816 L665,385.5150546492861 L670,387.39379809456324 L675,388.7904978749651 L680,389.6664464996255 L685,389.99736833403506 L690,389.77409236373336 L695,389.0028063555565 L700,387.70488537273263 L705,385.9162993962789 L710,383.68661646960635 L715,381.0776289927211 L720,378.1616412362678" fill="none" stroke="#2E7BF6" stroke-width="1.5" opacity="0.5"/>
<rect x="200" y="405" width="400" height="30" rx="6" fill="#FFFFFF" stroke="#E2E8F0" stroke-width="1.5"/>
<text x="400" y="422" font-size="11" fill="#718096" text-anchor="middle" font-weight="normal" font-family="'Inter', 'Segoe UI', 'Helvetica Neue', sans-serif" dy="0.35em">&quot;dog bites man&quot; ≠ &quot;man bites dog&quot; — order matters!</text>
</svg>