<?xml version="1.0" encoding="UTF-8"?>
<svg xmlns="http://www.w3.org/2000/svg" viewBox="0 0 800 450" width="800" height="450">
<defs>
<marker id="arrowhead" markerWidth="10" markerHeight="7" refX="9" refY="3.5" orient="auto">
  <polygon points="0 0, 10 3.5, 0 7" fill="#2D3748"/>
</marker>
<filter id="shadow" x="-4%" y="-4%" width="108%" height="108%">
  <feDropShadow dx="0" dy="2" stdDeviation="3" flood-opacity="0.08"/>
</filter>
</defs>
<rect x="0" y="0" width="800" height="450" rx="0" fill="#F8FAFE"/>
<circle cx="400" cy="450" r="300" fill="#EBF4FF" opacity="0.15"/>
<text x="400" y="35" font-size="22" fill="#2D3748" text-anchor="middle" font-weight="bold" font-family="'Inter', 'Segoe UI', 'Helvetica Neue', sans-serif" dy="0.35em">AI Future Trends</text>
<circle cx="400" cy="200" r="50" fill="#2E7BF6" opacity="0.15"/>
<circle cx="400" cy="200" r="50" fill="none" stroke="#2E7BF6" stroke-width="2.5"/>
<text x="400" y="193" font-size="22" fill="#2E7BF6" text-anchor="middle" font-weight="bold" font-family="'Inter', 'Segoe UI', 'Helvetica Neue', sans-serif" dy="0.35em">AI</text>
<text x="400" y="213" font-size="11" fill="#2E7BF6" text-anchor="middle" font-weight="normal" font-family="'Inter', 'Segoe UI', 'Helvetica Neue', sans-serif" dy="0.35em">Future</text>
<line x1="355" y1="168" x2="210" y2="110" stroke="#2E7BF6" stroke-width="2" marker-end="url(#arrowhead)"/>
<rect x="80" y="70" width="200" height="100" rx="12" fill="#EBF4FF" stroke="#2E7BF6" stroke-width="1.5" opacity="0.3"/>
<rect x="80" y="70" width="200" height="100" rx="12" fill="none" stroke="#2E7BF6" stroke-width="1.5"/>
<text x="180" y="98" font-size="14" fill="#2E7BF6" text-anchor="middle" font-weight="700" font-family="'Inter', 'Segoe UI', 'Helvetica Neue', sans-serif" dy="0.35em">Multimodal AI</text>
<text x="180" y="120" font-size="11" fill="#2D3748" text-anchor="middle" font-weight="normal" font-family="'Inter', 'Segoe UI', 'Helvetica Neue', sans-serif" dy="0.35em">Text + Image + Audio</text>
<text x="180" y="140" font-size="10" fill="#718096" text-anchor="middle" font-weight="normal" font-family="'Inter', 'Segoe UI', 'Helvetica Neue', sans-serif" dy="0.35em">Unified understanding</text>
<text x="180" y="155" font-size="10" fill="#718096" text-anchor="middle" font-weight="normal" font-family="'Inter', 'Segoe UI', 'Helvetica Neue', sans-serif" dy="0.35em">&amp; generation</text>
<g transform="translate(100, 82) scale(0.6666666666666666)">
<path d="M4 4h16a2 2 0 012 2v10a2 2 0 01-2 2H8l-4 4V6a2 2 0 012-2z" fill="#2E7BF6" stroke="none" stroke-width="0"/>
</g>
<g transform="translate(248, 82) scale(0.6666666666666666)">
<path d="M8 6l-6 6 6 6m8-12l6 6-6 6m-4-14l-2 16" fill="#2E7BF6" stroke="none" stroke-width="0"/>
</g>
<line x1="445" y1="168" x2="580" y2="110" stroke="#22C1A6" stroke-width="2" marker-end="url(#arrowhead)"/>
<rect x="520" y="70" width="200" height="100" rx="12" fill="#E6FAF5" stroke="#22C1A6" stroke-width="1.5" opacity="0.3"/>
<rect x="520" y="70" width="200" height="100" rx="12" fill="none" stroke="#22C1A6" stroke-width="1.5"/>
<text x="620" y="98" font-size="14" fill="#22C1A6" text-anchor="middle" font-weight="700" font-family="'Inter', 'Segoe UI', 'Helvetica Neue', sans-serif" dy="0.35em">AI Agents</text>
<text x="620" y="120" font-size="11" fill="#2D3748" text-anchor="middle" font-weight="normal" font-family="'Inter', 'Segoe UI', 'Helvetica Neue', sans-serif" dy="0.35em">Autonomous planning</text>
<text x="620" y="140" font-size="10" fill="#718096" text-anchor="middle" font-weight="normal" font-family="'Inter', 'Segoe UI', 'Helvetica Neue', sans-serif" dy="0.35em">Tool use &amp; reasoning</text>
<text x="620" y="155" font-size="10" fill="#718096" text-anchor="middle" font-weight="normal" font-family="'Inter', 'Segoe UI', 'Helvetica Neue', sans-serif" dy="0.35em">Multi-step tasks</text>
<g transform="translate(540, 82) scale(0.6666666666666666)">
<path d="M12 2a2 2 0 012 2v1h3a2 2 0 012 2v10a2 2 0 01-2 2H7a2 2 0 01-2-2V7a2 2 0 012-2h3V4a2 2 0 012-2zm-2 9a1.5 1.5 0 100 3 1.5 1.5 0 000-3zm4 0a1.5 1.5 0 100 3 1.5 1.5 0 000-3zm-2 5c-1.5 0-2.5-.5-3-1h6c-.5.5-1.5 1-3 1z" fill="#2E7BF6" stroke="none" stroke-width="0"/>
</g>
<g transform="translate(688, 82) scale(0.6666666666666666)">
<path d="M12 8a4 4 0 100 8 4 4 0 000-8zm0-6l1.5 2.4a7 7 0 013.1 1.8L19 5l1 3.5-2.3 1.2a7 7 0 010 3.6L20 14.5 19 18l-2.4-1.2a7 7 0 01-3.1 1.8L12 21l-1.5-2.4a7 7 0 01-3.1-1.8L5 18l-1-3.5 2.3-1.2a7 7 0 010-3.6L4 8.5 5 5l2.4 1.2a7 7 0 013.1-1.8L12 2z" fill="#2E7BF6" stroke="none" stroke-width="0"/>
</g>
<line x1="400" y1="252" x2="400" y2="310" stroke="#FF8A3D" stroke-width="2" marker-end="url(#arrowhead)"/>
<rect x="280" y="315" width="240" height="100" rx="12" fill="#FFF3EB" stroke="#FF8A3D" stroke-width="1.5" opacity="0.3"/>
<rect x="280" y="315" width="240" height="100" rx="12" fill="none" stroke="#FF8A3D" stroke-width="1.5"/>
<text x="400" y="343" font-size="14" fill="#FF8A3D" text-anchor="middle" font-weight="700" font-family="'Inter', 'Segoe UI', 'Helvetica Neue', sans-serif" dy="0.35em">Embodied Intelligence</text>
<text x="400" y="365" font-size="11" fill="#2D3748" text-anchor="middle" font-weight="normal" font-family="'Inter', 'Segoe UI', 'Helvetica Neue', sans-serif" dy="0.35em">Robots &amp; physical world</text>
<text x="400" y="385" font-size="10" fill="#718096" text-anchor="middle" font-weight="normal" font-family="'Inter', 'Segoe UI', 'Helvetica Neue', sans-serif" dy="0.35em">Perception + Action</text>
<text x="400" y="400" font-size="10" fill="#718096" text-anchor="middle" font-weight="normal" font-family="'Inter', 'Segoe UI', 'Helvetica Neue', sans-serif" dy="0.35em">Real-world interaction</text>
<g transform="translate(300, 327) scale(0.6666666666666666)">
<path d="M6 4h12a2 2 0 012 2v12a2 2 0 01-2 2H6a2 2 0 01-2-2V6a2 2 0 012-2zm3 5h6v6H9V9zm-5 2h2m14 0h2M11 2v2m0 16v2m4-20v2m0 16v2M7 2v2m0 16v2" fill="#2E7BF6" stroke="none" stroke-width="0"/>
</g>
<g transform="translate(488, 327) scale(0.6666666666666666)">
<path d="M12 2L2 7l10 5 10-5L12 2zm0 7l-10 5 10 5 10-5-10-5zm0 7l-10 5 10 5 10-5-10-5z" fill="#2E7BF6" stroke="none" stroke-width="0"/>
</g>
<path d="M180,170 Q180,250 280,330" fill="none" stroke="#E2E8F0" stroke-width="1"/>
<path d="M620,170 Q620,250 520,330" fill="none" stroke="#E2E8F0" stroke-width="1"/>
<text x="400" y="440" font-size="12" fill="#718096" text-anchor="middle" font-weight="normal" font-family="'Inter', 'Segoe UI', 'Helvetica Neue', sans-serif" dy="0.35em">Convergence of intelligence across modalities, tasks, and physical space</text>
</svg>