<?xml version="1.0" encoding="UTF-8"?>
<svg xmlns="http://www.w3.org/2000/svg" viewBox="0 0 800 450" width="800" height="450">
<defs>
<marker id="arrowhead" markerWidth="10" markerHeight="7" refX="9" refY="3.5" orient="auto">
  <polygon points="0 0, 10 3.5, 0 7" fill="#2D3748"/>
</marker>
<filter id="shadow" x="-4%" y="-4%" width="108%" height="108%">
  <feDropShadow dx="0" dy="2" stdDeviation="3" flood-opacity="0.08"/>
</filter>
</defs>
<rect x="0" y="0" width="800" height="450" rx="0" fill="#F8FAFE"/>
<circle cx="650" cy="100" r="180" fill="#EBF4FF" opacity="0.4"/>
<circle cx="150" cy="380" r="120" fill="#E6FAF5" opacity="0.3"/>
<text x="400" y="40" font-size="28" fill="#2D3748" text-anchor="middle" font-weight="bold" font-family="'Inter', 'Segoe UI', 'Helvetica Neue', sans-serif" dy="0.35em">AI for Everyone</text>
<text x="400" y="68" font-size="14" fill="#718096" text-anchor="middle" font-weight="normal" font-family="'Inter', 'Segoe UI', 'Helvetica Neue', sans-serif" dy="0.35em">A Friendly Introduction</text>
<rect x="120" y="280" width="240" height="90" rx="20" fill="#22C1A6" opacity="0.2"/>
<rect x="120" y="280" width="240" height="70" rx="16" fill="#22C1A6" opacity="0.15"/>
<rect x="130" y="240" width="220" height="55" rx="14" fill="#22C1A6" opacity="0.25"/>
<rect x="110" y="260" width="30" height="80" rx="12" fill="#22C1A6" opacity="0.3"/>
<rect x="340" y="260" width="30" height="80" rx="12" fill="#22C1A6" opacity="0.3"/>
<circle cx="240" cy="210" r="28" fill="#FFF3EB" stroke="#FF8A3D" stroke-width="2"/>
<rect x="215" y="245" width="50" height="60" rx="10" fill="#EBF4FF" stroke="#2E7BF6" stroke-width="1.5"/>
<path d="M220,270 Q200,290 210,310" fill="none" stroke="#2E7BF6" stroke-width="2"/>
<path d="M260,270 Q280,290 275,310" fill="none" stroke="#2E7BF6" stroke-width="2"/>
<rect x="200" y="300" width="80" height="55" rx="4" fill="#FFFFFF" stroke="#2E7BF6" stroke-width="1.5"/>
<line x1="240" y1="300" x2="240" y2="355" stroke="#2E7BF6" stroke-width="1"/>
<line x1="208" y1="315" x2="232" y2="315" stroke="#E2E8F0" stroke-width="1.5"/>
<line x1="208" y1="325" x2="228" y2="325" stroke="#E2E8F0" stroke-width="1.5"/>
<line x1="248" y1="315" x2="272" y2="315" stroke="#E2E8F0" stroke-width="1.5"/>
<line x1="248" y1="325" x2="268" y2="325" stroke="#E2E8F0" stroke-width="1.5"/>
<path d="M232,218 Q240,225 248,218" fill="none" stroke="#FF8A3D" stroke-width="1.5"/>
<circle cx="232" cy="205" r="3" fill="#2D3748"/>
<circle cx="248" cy="205" r="3" fill="#2D3748"/>
<path d="M280,300 Q350,250 400,200" fill="none" stroke="#2E7BF6" stroke-width="1"/>
<path d="M280,310 Q380,280 480,180" fill="none" stroke="#22C1A6" stroke-width="1"/>
<path d="M275,295 Q340,220 520,210" fill="none" stroke="#FF8A3D" stroke-width="1"/>
<g>
<circle cx="420" cy="180" r="32" fill="#FFF3EB" opacity="0.8"/>
<g transform="translate(408, 168) scale(1)">
<path d="M12 2C8.13 2 5 5.13 5 9c0 2.38 1.19 4.47 3 5.74V17a1 1 0 001 1h6a1 1 0 001-1v-2.26c1.81-1.27 3-3.36 3-5.74 0-3.87-3.13-7-7-7zm-1 17h2v1h-2v-1zm0 2h2v1h-2v-1z" fill="#2E7BF6" stroke="none" stroke-width="0"/>
</g>
</g>
<g>
<circle cx="530" cy="200" r="32" fill="#EBF4FF" opacity="0.8"/>
<g transform="translate(518, 188) scale(1)">
<path d="M12 2a2 2 0 012 2v1h3a2 2 0 012 2v10a2 2 0 01-2 2H7a2 2 0 01-2-2V7a2 2 0 012-2h3V4a2 2 0 012-2zm-2 9a1.5 1.5 0 100 3 1.5 1.5 0 000-3zm4 0a1.5 1.5 0 100 3 1.5 1.5 0 000-3zm-2 5c-1.5 0-2.5-.5-3-1h6c-.5.5-1.5 1-3 1z" fill="#2E7BF6" stroke="none" stroke-width="0"/>
</g>
</g>
<g>
<circle cx="610" cy="150" r="32" fill="#E6FAF5" opacity="0.8"/>
<g transform="translate(598, 138) scale(1)">
<path d="M12 2C8.5 2 6 4.5 6 7.5c0 1.5.5 2.8 1.4 3.8C6.5 12.5 6 14 6 15.5 6 18.5 8.5 21 12 21s6-2.5 6-6.5c0-1.5-.5-3-1.4-4C17.5 9.3 18 8 18 6.5 18 4.5 15.5 2 12 2zm0 2c1.5 0 3 .8 3.5 2-.5.2-1 .5-1.5.8-.5-.5-1.2-.8-2-.8s-1.5.3-2 .8c-.5-.3-1-.6-1.5-.8C9 4.8 10.5 4 12 4z" fill="#2E7BF6" stroke="none" stroke-width="0"/>
</g>
</g>
<g>
<circle cx="500" cy="100" r="28" fill="#FFF3EB" opacity="0.8"/>
<g transform="translate(488, 88) scale(1)">
<path d="M4 4h16a2 2 0 012 2v10a2 2 0 01-2 2H8l-4 4V6a2 2 0 012-2z" fill="#2E7BF6" stroke="none" stroke-width="0"/>
</g>
</g>
<g>
<circle cx="680" cy="240" r="28" fill="#EBF4FF" opacity="0.7"/>
<g transform="translate(668, 228) scale(1)">
<path d="M8 6l-6 6 6 6m8-12l6 6-6 6m-4-14l-2 16" fill="#2E7BF6" stroke="none" stroke-width="0"/>
</g>
</g>
<g>
<rect x="280" y="400" width="128" height="26" rx="13" fill="#22C1A6" opacity="0.15"/>
<text x="344" y="413" font-size="12" fill="#22C1A6" text-anchor="middle" font-weight="600" font-family="'Inter', 'Segoe UI', 'Helvetica Neue', sans-serif" dy="0.35em">Easy to Learn</text>
</g>
<g>
<rect x="430" y="400" width="152" height="26" rx="13" fill="#2E7BF6" opacity="0.15"/>
<text x="506" y="413" font-size="12" fill="#2E7BF6" text-anchor="middle" font-weight="600" font-family="'Inter', 'Segoe UI', 'Helvetica Neue', sans-serif" dy="0.35em">No Math Required</text>
</g>
<g>
<rect x="600" y="400" width="56" height="26" rx="13" fill="#FF8A3D" opacity="0.15"/>
<text x="628" y="413" font-size="12" fill="#FF8A3D" text-anchor="middle" font-weight="600" font-family="'Inter', 'Segoe UI', 'Helvetica Neue', sans-serif" dy="0.35em">Fun!</text>
</g>
<circle cx="50" cy="120" r="4" fill="#2E7BF6" opacity="0.3"/>
<circle cx="750" cy="350" r="5" fill="#22C1A6" opacity="0.3"/>
<circle cx="700" cy="400" r="3" fill="#FF8A3D" opacity="0.3"/>
</svg>