<?xml version="1.0" encoding="UTF-8"?>
<svg xmlns="http://www.w3.org/2000/svg" viewBox="0 0 800 450" width="800" height="450">
<defs>
<marker id="arrowhead" markerWidth="10" markerHeight="7" refX="9" refY="3.5" orient="auto">
  <polygon points="0 0, 10 3.5, 0 7" fill="#2D3748"/>
</marker>
<filter id="shadow" x="-4%" y="-4%" width="108%" height="108%">
  <feDropShadow dx="0" dy="2" stdDeviation="3" flood-opacity="0.08"/>
</filter>
</defs>
<rect x="0" y="0" width="800" height="450" rx="0" fill="#F8FAFE"/>
<text x="400" y="40" font-size="26" fill="#2D3748" text-anchor="middle" font-weight="bold" font-family="'Inter', 'Segoe UI', 'Helvetica Neue', sans-serif" dy="0.35em">Learning Roadmap</text>
<text x="400" y="65" font-size="13" fill="#718096" text-anchor="middle" font-weight="normal" font-family="'Inter', 'Segoe UI', 'Helvetica Neue', sans-serif" dy="0.35em">Your journey to understanding AI</text>
<path d="M0,450 L100,380 L200,350 L300,300 L400,250 L500,200 L600,160 L700,120 L750,100 L800,130 L800,450 Z" fill="#2E7BF6" stroke="none" stroke-width="0" opacity="0.05"/>
<path d="M80,320 Q144,250 208,220 Q272,245 336,310 Q400,230 464,190 Q528,215 592,280 Q656,190 720,140" fill="none" stroke="#E2E8F0" stroke-width="3"/>
<circle cx="80" cy="320" r="20" fill="#FF8A3D" opacity="0.15"/>
<circle cx="80" cy="320" r="20" fill="none" stroke="#FF8A3D" stroke-width="2"/>
<text x="80" y="320" font-size="14" fill="#FF8A3D" text-anchor="middle" font-weight="bold" font-family="'Inter', 'Segoe UI', 'Helvetica Neue', sans-serif" dy="0.35em">1</text>
<text x="80" y="355" font-size="13" fill="#2D3748" text-anchor="middle" font-weight="500" font-family="'Inter', 'Segoe UI', 'Helvetica Neue', sans-serif" dy="0.35em">Preface</text>
<circle cx="208" cy="220" r="20" fill="#2E7BF6" opacity="0.15"/>
<circle cx="208" cy="220" r="20" fill="none" stroke="#2E7BF6" stroke-width="2"/>
<text x="208" y="220" font-size="14" fill="#2E7BF6" text-anchor="middle" font-weight="bold" font-family="'Inter', 'Segoe UI', 'Helvetica Neue', sans-serif" dy="0.35em">2</text>
<text x="208" y="188" font-size="13" fill="#2D3748" text-anchor="middle" font-weight="500" font-family="'Inter', 'Segoe UI', 'Helvetica Neue', sans-serif" dy="0.35em">AI Basics</text>
<circle cx="336" cy="310" r="20" fill="#2E7BF6" opacity="0.15"/>
<circle cx="336" cy="310" r="20" fill="none" stroke="#2E7BF6" stroke-width="2"/>
<text x="336" y="310" font-size="14" fill="#2E7BF6" text-anchor="middle" font-weight="bold" font-family="'Inter', 'Segoe UI', 'Helvetica Neue', sans-serif" dy="0.35em">3</text>
<text x="336" y="345" font-size="13" fill="#2D3748" text-anchor="middle" font-weight="500" font-family="'Inter', 'Segoe UI', 'Helvetica Neue', sans-serif" dy="0.35em">Machine Learning</text>
<circle cx="464" cy="190" r="20" fill="#22C1A6" opacity="0.15"/>
<circle cx="464" cy="190" r="20" fill="none" stroke="#22C1A6" stroke-width="2"/>
<text x="464" y="190" font-size="14" fill="#22C1A6" text-anchor="middle" font-weight="bold" font-family="'Inter', 'Segoe UI', 'Helvetica Neue', sans-serif" dy="0.35em">4</text>
<text x="464" y="158" font-size="13" fill="#2D3748" text-anchor="middle" font-weight="500" font-family="'Inter', 'Segoe UI', 'Helvetica Neue', sans-serif" dy="0.35em">Neural Networks</text>
<circle cx="592" cy="280" r="20" fill="#22C1A6" opacity="0.15"/>
<circle cx="592" cy="280" r="20" fill="none" stroke="#22C1A6" stroke-width="2"/>
<text x="592" y="280" font-size="14" fill="#22C1A6" text-anchor="middle" font-weight="bold" font-family="'Inter', 'Segoe UI', 'Helvetica Neue', sans-serif" dy="0.35em">5</text>
<text x="592" y="315" font-size="13" fill="#2D3748" text-anchor="middle" font-weight="500" font-family="'Inter', 'Segoe UI', 'Helvetica Neue', sans-serif" dy="0.35em">Transformer</text>
<circle cx="720" cy="140" r="20" fill="#FF8A3D" opacity="0.15"/>
<circle cx="720" cy="140" r="20" fill="none" stroke="#FF8A3D" stroke-width="2"/>
<text x="720" y="140" font-size="14" fill="#FF8A3D" text-anchor="middle" font-weight="bold" font-family="'Inter', 'Segoe UI', 'Helvetica Neue', sans-serif" dy="0.35em">6</text>
<text x="720" y="108" font-size="13" fill="#2D3748" text-anchor="middle" font-weight="500" font-family="'Inter', 'Segoe UI', 'Helvetica Neue', sans-serif" dy="0.35em">LLM Practice</text>
<line x1="730" y1="95" x2="730" y2="135" stroke="#FF8A3D" stroke-width="2"/>
<path d="M730,95 L760,105 L730,115 Z" fill="#FF8A3D" stroke="none" stroke-width="0"/>
<text x="745" y="87" font-size="11" fill="#FF8A3D" text-anchor="middle" font-weight="600" font-family="'Inter', 'Segoe UI', 'Helvetica Neue', sans-serif" dy="0.35em">Understand AI!</text>
<circle cx="50" cy="100" r="4" fill="#2E7BF6" opacity="0.3"/>
<circle cx="760" cy="400" r="5" fill="#22C1A6" opacity="0.3"/>
<text x="400" y="430" font-size="12" fill="#718096" text-anchor="middle" font-weight="normal" font-family="'Inter', 'Segoe UI', 'Helvetica Neue', sans-serif" dy="0.35em">From zero to AI literacy — step by step</text>
</svg>