<?xml version="1.0" encoding="UTF-8"?>
<svg xmlns="http://www.w3.org/2000/svg" viewBox="0 0 800 450" width="800" height="450">
<defs>
<marker id="arrowhead" markerWidth="10" markerHeight="7" refX="9" refY="3.5" orient="auto">
  <polygon points="0 0, 10 3.5, 0 7" fill="#2D3748"/>
</marker>
<filter id="shadow" x="-4%" y="-4%" width="108%" height="108%">
  <feDropShadow dx="0" dy="2" stdDeviation="3" flood-opacity="0.08"/>
</filter>
</defs>
<rect x="0" y="0" width="800" height="450" rx="0" fill="#F8FAFE"/>
<text x="400" y="40" font-size="26" fill="#2D3748" text-anchor="middle" font-weight="bold" font-family="'Inter', 'Segoe UI', 'Helvetica Neue', sans-serif" dy="0.35em">AI in Daily Life</text>
<text x="400" y="62" font-size="12" fill="#718096" text-anchor="middle" font-weight="normal" font-family="'Inter', 'Segoe UI', 'Helvetica Neue', sans-serif" dy="0.35em">AI is already everywhere around us</text>
<rect x="60" y="90" width="110" height="100" rx="12" fill="#2E7BF6" opacity="0.1"/>
<rect x="60" y="90" width="110" height="100" rx="12" fill="none" stroke="#2E7BF6" stroke-width="1.5"/>
<g>
<circle cx="115" cy="128" r="20" fill="#2E7BF6" opacity="0.2"/>
<circle cx="115" cy="122" r="10" fill="none" stroke="#2E7BF6" stroke-width="1.5"/>
<path d="M102,140 Q115,148 128,140" fill="none" stroke="#2E7BF6" stroke-width="1.5"/>
</g>
<text x="115" y="172" font-size="11" fill="#2D3748" text-anchor="middle" font-weight="500" font-family="'Inter', 'Segoe UI', 'Helvetica Neue', sans-serif" dy="0.35em">Face Unlock</text>
<rect x="200" y="90" width="110" height="100" rx="12" fill="#22C1A6" opacity="0.1"/>
<rect x="200" y="90" width="110" height="100" rx="12" fill="none" stroke="#22C1A6" stroke-width="1.5"/>
<g>
<circle cx="255" cy="130" r="18" fill="#22C1A6" opacity="0.2"/>
<path d="M245,138 L255,120 L265,138" fill="none" stroke="#22C1A6" stroke-width="2"/>
<circle cx="255" cy="120" r="4" fill="#22C1A6"/>
</g>
<text x="255" y="172" font-size="11" fill="#2D3748" text-anchor="middle" font-weight="500" font-family="'Inter', 'Segoe UI', 'Helvetica Neue', sans-serif" dy="0.35em">Navigation</text>
<rect x="340" y="90" width="110" height="100" rx="12" fill="#2E7BF6" opacity="0.1"/>
<rect x="340" y="90" width="110" height="100" rx="12" fill="none" stroke="#2E7BF6" stroke-width="1.5"/>
<g transform="translate(383, 118) scale(1.1666666666666667)">
<path d="M4 4h16a2 2 0 012 2v10a2 2 0 01-2 2H8l-4 4V6a2 2 0 012-2z" fill="#2E7BF6" stroke="none" stroke-width="0"/>
</g>
<text x="395" y="172" font-size="11" fill="#2D3748" text-anchor="middle" font-weight="500" font-family="'Inter', 'Segoe UI', 'Helvetica Neue', sans-serif" dy="0.35em">Voice Assistant</text>
<rect x="480" y="90" width="110" height="100" rx="12" fill="#FF8A3D" opacity="0.1"/>
<rect x="480" y="90" width="110" height="100" rx="12" fill="none" stroke="#FF8A3D" stroke-width="1.5"/>
<g transform="translate(523, 118) scale(1.1666666666666667)">
<path d="M8 6l-6 6 6 6m8-12l6 6-6 6m-4-14l-2 16" fill="#2E7BF6" stroke="none" stroke-width="0"/>
</g>
<text x="535" y="172" font-size="11" fill="#2D3748" text-anchor="middle" font-weight="500" font-family="'Inter', 'Segoe UI', 'Helvetica Neue', sans-serif" dy="0.35em">Smart Input</text>
<rect x="620" y="90" width="110" height="100" rx="12" fill="#22C1A6" opacity="0.1"/>
<rect x="620" y="90" width="110" height="100" rx="12" fill="none" stroke="#22C1A6" stroke-width="1.5"/>
<g transform="translate(663, 118) scale(1.1666666666666667)">
<path d="M12 2C8.5 2 6 4.5 6 7.5c0 1.5.5 2.8 1.4 3.8C6.5 12.5 6 14 6 15.5 6 18.5 8.5 21 12 21s6-2.5 6-6.5c0-1.5-.5-3-1.4-4C17.5 9.3 18 8 18 6.5 18 4.5 15.5 2 12 2zm0 2c1.5 0 3 .8 3.5 2-.5.2-1 .5-1.5.8-.5-.5-1.2-.8-2-.8s-1.5.3-2 .8c-.5-.3-1-.6-1.5-.8C9 4.8 10.5 4 12 4z" fill="#2E7BF6" stroke="none" stroke-width="0"/>
</g>
<text x="675" y="172" font-size="11" fill="#2D3748" text-anchor="middle" font-weight="500" font-family="'Inter', 'Segoe UI', 'Helvetica Neue', sans-serif" dy="0.35em">Recommendation</text>
<rect x="60" y="220" width="110" height="100" rx="12" fill="#2E7BF6" opacity="0.1"/>
<rect x="60" y="220" width="110" height="100" rx="12" fill="none" stroke="#2E7BF6" stroke-width="1.5"/>
<g>
<text x="95" y="258" font-size="18" fill="#2E7BF6" text-anchor="middle" font-weight="bold" font-family="'Inter', 'Segoe UI', 'Helvetica Neue', sans-serif" dy="0.35em">A</text>
<text x="115" y="262" font-size="14" fill="#718096" text-anchor="middle" font-weight="normal" font-family="'Inter', 'Segoe UI', 'Helvetica Neue', sans-serif" dy="0.35em">→</text>
<text x="135" y="258" font-size="18" fill="#22C1A6" text-anchor="middle" font-weight="bold" font-family="'Inter', 'Segoe UI', 'Helvetica Neue', sans-serif" dy="0.35em">B</text>
</g>
<text x="115" y="302" font-size="11" fill="#2D3748" text-anchor="middle" font-weight="500" font-family="'Inter', 'Segoe UI', 'Helvetica Neue', sans-serif" dy="0.35em">Translation</text>
<rect x="200" y="220" width="110" height="100" rx="12" fill="#FF8A3D" opacity="0.1"/>
<rect x="200" y="220" width="110" height="100" rx="12" fill="none" stroke="#FF8A3D" stroke-width="1.5"/>
<g>
<rect x="230" y="242" width="30" height="30" rx="4" fill="#FF8A3D" opacity="0.3"/>
<rect x="250" y="252" width="30" height="30" rx="4" fill="#FF8A3D" opacity="0.5"/>
</g>
<text x="255" y="302" font-size="11" fill="#2D3748" text-anchor="middle" font-weight="500" font-family="'Inter', 'Segoe UI', 'Helvetica Neue', sans-serif" dy="0.35em">Photo Edit</text>
<rect x="340" y="220" width="110" height="100" rx="12" fill="#2E7BF6" opacity="0.1"/>
<rect x="340" y="220" width="110" height="100" rx="12" fill="none" stroke="#2E7BF6" stroke-width="1.5"/>
<g>
<circle cx="392" cy="258" r="14" fill="none" stroke="#2E7BF6" stroke-width="2"/>
<line x1="402" y1="268" x2="412" y2="278" stroke="#2E7BF6" stroke-width="2"/>
</g>
<text x="395" y="302" font-size="11" fill="#2D3748" text-anchor="middle" font-weight="500" font-family="'Inter', 'Segoe UI', 'Helvetica Neue', sans-serif" dy="0.35em">Smart Search</text>
<rect x="480" y="220" width="110" height="100" rx="12" fill="#22C1A6" opacity="0.1"/>
<rect x="480" y="220" width="110" height="100" rx="12" fill="none" stroke="#22C1A6" stroke-width="1.5"/>
<g>
<rect x="515" y="245" width="40" height="28" rx="3" fill="#22C1A6" opacity="0.2"/>
<path d="M515,250 L535,262 L555,250" fill="none" stroke="#22C1A6" stroke-width="1.5"/>
</g>
<text x="535" y="302" font-size="11" fill="#2D3748" text-anchor="middle" font-weight="500" font-family="'Inter', 'Segoe UI', 'Helvetica Neue', sans-serif" dy="0.35em">Email Filter</text>
<rect x="620" y="220" width="110" height="100" rx="12" fill="#FF8A3D" opacity="0.1"/>
<rect x="620" y="220" width="110" height="100" rx="12" fill="none" stroke="#FF8A3D" stroke-width="1.5"/>
<g>
<circle cx="675" cy="258" r="15" fill="#FF8A3D" opacity="0.2"/>
<text x="675" y="260" font-size="20" fill="#FF8A3D" text-anchor="middle" font-weight="normal" font-family="'Inter', 'Segoe UI', 'Helvetica Neue', sans-serif" dy="0.35em">♫</text>
</g>
<text x="675" y="302" font-size="11" fill="#2D3748" text-anchor="middle" font-weight="500" font-family="'Inter', 'Segoe UI', 'Helvetica Neue', sans-serif" dy="0.35em">Music Rec.</text>
<text x="400" y="430" font-size="12" fill="#718096" text-anchor="middle" font-weight="normal" font-family="'Inter', 'Segoe UI', 'Helvetica Neue', sans-serif" dy="0.35em">AI touches 10+ moments in your typical day</text>
</svg>