<?xml version="1.0" encoding="UTF-8"?>
<svg xmlns="http://www.w3.org/2000/svg" viewBox="0 0 800 450" width="800" height="450">
<defs>
<marker id="arrowhead" markerWidth="10" markerHeight="7" refX="9" refY="3.5" orient="auto">
  <polygon points="0 0, 10 3.5, 0 7" fill="#2D3748"/>
</marker>
<filter id="shadow" x="-4%" y="-4%" width="108%" height="108%">
  <feDropShadow dx="0" dy="2" stdDeviation="3" flood-opacity="0.08"/>
</filter>
</defs>
<rect x="0" y="0" width="800" height="450" rx="0" fill="#F8FAFE"/>
<text x="400" y="40" font-size="24" fill="#2D3748" text-anchor="middle" font-weight="bold" font-family="'Inter', 'Segoe UI', 'Helvetica Neue', sans-serif" dy="0.35em">Machine Learning Roadmap</text>
<text x="400" y="63" font-size="13" fill="#718096" text-anchor="middle" font-weight="normal" font-family="'Inter', 'Segoe UI', 'Helvetica Neue', sans-serif" dy="0.35em">Five steps from data to deployment</text>
<line x1="80" y1="225" x2="720" y2="225" stroke="#E2E8F0" stroke-width="3"/>
<circle cx="80" cy="225" r="30" fill="#2E7BF6" opacity="0.12"/>
<circle cx="80" cy="225" r="30" fill="none" stroke="#2E7BF6" stroke-width="2.5"/>
<g transform="translate(68, 213) scale(1)">
<path d="M12 2C8 2 4 3.5 4 5.5v13C4 20.5 8 22 12 22s8-1.5 8-3.5v-13C20 3.5 16 2 12 2zm0 2c4 0 6 1.2 6 1.5S16 7 12 7 6 5.8 6 5.5 8 4 12 4zM6 8c1.5 1 3.5 1.5 6 1.5S16.5 9 18 8v3.5c0 .3-2 1.5-6 1.5s-6-1.2-6-1.5V8zm0 6c1.5 1 3.5 1.5 6 1.5s4.5-.5 6-1.5v3.5c0 .3-2 1.5-6 1.5s-6-1.2-6-1.5V14z" fill="#2E7BF6" stroke="none" stroke-width="0"/>
</g>
<text x="80" y="275" font-size="14" fill="#2D3748" text-anchor="middle" font-weight="600" font-family="'Inter', 'Segoe UI', 'Helvetica Neue', sans-serif" dy="0.35em">Data</text>
<text x="80" y="293" font-size="11" fill="#718096" text-anchor="middle" font-weight="normal" font-family="'Inter', 'Segoe UI', 'Helvetica Neue', sans-serif" dy="0.35em">Collect &amp; clean</text>
<circle cx="80" cy="170" r="14" fill="#2E7BF6" opacity="0.2"/>
<text x="80" y="170" font-size="12" fill="#2E7BF6" text-anchor="middle" font-weight="bold" font-family="'Inter', 'Segoe UI', 'Helvetica Neue', sans-serif" dy="0.35em">1</text>
<line x1="115" y1="225" x2="205" y2="225" stroke="#718096" stroke-width="1.5" marker-end="url(#arrowhead)"/>
<circle cx="240" cy="225" r="30" fill="#22C1A6" opacity="0.12"/>
<circle cx="240" cy="225" r="30" fill="none" stroke="#22C1A6" stroke-width="2.5"/>
<g transform="translate(228, 213) scale(1)">
<path d="M12 8a4 4 0 100 8 4 4 0 000-8zm0-6l1.5 2.4a7 7 0 013.1 1.8L19 5l1 3.5-2.3 1.2a7 7 0 010 3.6L20 14.5 19 18l-2.4-1.2a7 7 0 01-3.1 1.8L12 21l-1.5-2.4a7 7 0 01-3.1-1.8L5 18l-1-3.5 2.3-1.2a7 7 0 010-3.6L4 8.5 5 5l2.4 1.2a7 7 0 013.1-1.8L12 2z" fill="#2E7BF6" stroke="none" stroke-width="0"/>
</g>
<text x="240" y="275" font-size="14" fill="#2D3748" text-anchor="middle" font-weight="600" font-family="'Inter', 'Segoe UI', 'Helvetica Neue', sans-serif" dy="0.35em">Model</text>
<text x="240" y="293" font-size="11" fill="#718096" text-anchor="middle" font-weight="normal" font-family="'Inter', 'Segoe UI', 'Helvetica Neue', sans-serif" dy="0.35em">Choose structure</text>
<circle cx="240" cy="170" r="14" fill="#22C1A6" opacity="0.2"/>
<text x="240" y="170" font-size="12" fill="#22C1A6" text-anchor="middle" font-weight="bold" font-family="'Inter', 'Segoe UI', 'Helvetica Neue', sans-serif" dy="0.35em">2</text>
<line x1="275" y1="225" x2="365" y2="225" stroke="#718096" stroke-width="1.5" marker-end="url(#arrowhead)"/>
<circle cx="400" cy="225" r="30" fill="#FF8A3D" opacity="0.12"/>
<circle cx="400" cy="225" r="30" fill="none" stroke="#FF8A3D" stroke-width="2.5"/>
<g transform="translate(388, 213) scale(1)">
<path d="M12 2C8.5 2 6 4.5 6 7.5c0 1.5.5 2.8 1.4 3.8C6.5 12.5 6 14 6 15.5 6 18.5 8.5 21 12 21s6-2.5 6-6.5c0-1.5-.5-3-1.4-4C17.5 9.3 18 8 18 6.5 18 4.5 15.5 2 12 2zm0 2c1.5 0 3 .8 3.5 2-.5.2-1 .5-1.5.8-.5-.5-1.2-.8-2-.8s-1.5.3-2 .8c-.5-.3-1-.6-1.5-.8C9 4.8 10.5 4 12 4z" fill="#2E7BF6" stroke="none" stroke-width="0"/>
</g>
<text x="400" y="275" font-size="14" fill="#2D3748" text-anchor="middle" font-weight="600" font-family="'Inter', 'Segoe UI', 'Helvetica Neue', sans-serif" dy="0.35em">Training</text>
<text x="400" y="293" font-size="11" fill="#718096" text-anchor="middle" font-weight="normal" font-family="'Inter', 'Segoe UI', 'Helvetica Neue', sans-serif" dy="0.35em">Learn patterns</text>
<circle cx="400" cy="170" r="14" fill="#FF8A3D" opacity="0.2"/>
<text x="400" y="170" font-size="12" fill="#FF8A3D" text-anchor="middle" font-weight="bold" font-family="'Inter', 'Segoe UI', 'Helvetica Neue', sans-serif" dy="0.35em">3</text>
<line x1="435" y1="225" x2="525" y2="225" stroke="#718096" stroke-width="1.5" marker-end="url(#arrowhead)"/>
<circle cx="560" cy="225" r="30" fill="#2E7BF6" opacity="0.12"/>
<circle cx="560" cy="225" r="30" fill="none" stroke="#2E7BF6" stroke-width="2.5"/>
<g transform="translate(548, 213) scale(1)">
<path d="M5 12l5 5L20 7" fill="#2E7BF6" stroke="none" stroke-width="0"/>
</g>
<text x="560" y="275" font-size="14" fill="#2D3748" text-anchor="middle" font-weight="600" font-family="'Inter', 'Segoe UI', 'Helvetica Neue', sans-serif" dy="0.35em">Evaluation</text>
<text x="560" y="293" font-size="11" fill="#718096" text-anchor="middle" font-weight="normal" font-family="'Inter', 'Segoe UI', 'Helvetica Neue', sans-serif" dy="0.35em">Test accuracy</text>
<circle cx="560" cy="170" r="14" fill="#2E7BF6" opacity="0.2"/>
<text x="560" y="170" font-size="12" fill="#2E7BF6" text-anchor="middle" font-weight="bold" font-family="'Inter', 'Segoe UI', 'Helvetica Neue', sans-serif" dy="0.35em">4</text>
<line x1="595" y1="225" x2="685" y2="225" stroke="#718096" stroke-width="1.5" marker-end="url(#arrowhead)"/>
<circle cx="720" cy="225" r="30" fill="#22C1A6" opacity="0.12"/>
<circle cx="720" cy="225" r="30" fill="none" stroke="#22C1A6" stroke-width="2.5"/>
<g transform="translate(708, 213) scale(1)">
<path d="M12 2a3 3 0 00-3 3c0 1.1.6 2 1.5 2.6L9 10H6a3 3 0 100 6h1.5l1.5 2.4A3 3 0 0012 22a3 3 0 002.5-4.6L16 15h1a3 3 0 100-6h-2l-1.5-2.4A3 3 0 0012 2z" fill="#2E7BF6" stroke="none" stroke-width="0"/>
</g>
<text x="720" y="275" font-size="14" fill="#2D3748" text-anchor="middle" font-weight="600" font-family="'Inter', 'Segoe UI', 'Helvetica Neue', sans-serif" dy="0.35em">Deploy</text>
<text x="720" y="293" font-size="11" fill="#718096" text-anchor="middle" font-weight="normal" font-family="'Inter', 'Segoe UI', 'Helvetica Neue', sans-serif" dy="0.35em">Real-world use</text>
<circle cx="720" cy="170" r="14" fill="#22C1A6" opacity="0.2"/>
<text x="720" y="170" font-size="12" fill="#22C1A6" text-anchor="middle" font-weight="bold" font-family="'Inter', 'Segoe UI', 'Helvetica Neue', sans-serif" dy="0.35em">5</text>
<circle cx="100" cy="320" r="2" fill="#E2E8F0" opacity="0.6"/>
<circle cx="158" cy="320" r="2" fill="#E2E8F0" opacity="0.6"/>
<circle cx="216" cy="320" r="2" fill="#E2E8F0" opacity="0.6"/>
<circle cx="274" cy="320" r="2" fill="#E2E8F0" opacity="0.6"/>
<circle cx="332" cy="320" r="2" fill="#E2E8F0" opacity="0.6"/>
<circle cx="390" cy="320" r="2" fill="#E2E8F0" opacity="0.6"/>
<circle cx="448" cy="320" r="2" fill="#E2E8F0" opacity="0.6"/>
<circle cx="506" cy="320" r="2" fill="#E2E8F0" opacity="0.6"/>
<circle cx="564" cy="320" r="2" fill="#E2E8F0" opacity="0.6"/>
<circle cx="622" cy="320" r="2" fill="#E2E8F0" opacity="0.6"/>
<circle cx="680" cy="320" r="2" fill="#E2E8F0" opacity="0.6"/>
<circle cx="738" cy="320" r="2" fill="#E2E8F0" opacity="0.6"/>
<text x="400" y="420" font-size="12" fill="#718096" text-anchor="middle" font-weight="normal" font-family="'Inter', 'Segoe UI', 'Helvetica Neue', sans-serif" dy="0.35em">Each step builds on the previous one</text>
</svg>