<?xml version="1.0" encoding="UTF-8"?>
<svg xmlns="http://www.w3.org/2000/svg" viewBox="0 0 800 450" width="800" height="450">
<defs>
<marker id="arrowhead" markerWidth="10" markerHeight="7" refX="9" refY="3.5" orient="auto">
  <polygon points="0 0, 10 3.5, 0 7" fill="#2D3748"/>
</marker>
<filter id="shadow" x="-4%" y="-4%" width="108%" height="108%">
  <feDropShadow dx="0" dy="2" stdDeviation="3" flood-opacity="0.08"/>
</filter>
</defs>
<rect x="0" y="0" width="800" height="450" rx="0" fill="#F8FAFE"/>
<text x="400" y="35" font-size="22" fill="#2D3748" text-anchor="middle" font-weight="bold" font-family="'Inter', 'Segoe UI', 'Helvetica Neue', sans-serif" dy="0.35em">Multi-Layer Neural Network</text>
<line x1="138" y1="125" x2="292" y2="118" stroke="#E2E8F0" stroke-width="0.8"/>
<line x1="138" y1="125" x2="292" y2="174" stroke="#E2E8F0" stroke-width="0.8"/>
<line x1="138" y1="125" x2="292" y2="230" stroke="#E2E8F0" stroke-width="0.8"/>
<line x1="138" y1="125" x2="292" y2="286" stroke="#E2E8F0" stroke-width="0.8"/>
<line x1="138" y1="125" x2="292" y2="342" stroke="#E2E8F0" stroke-width="0.8"/>
<line x1="138" y1="195" x2="292" y2="118" stroke="#E2E8F0" stroke-width="0.8"/>
<line x1="138" y1="195" x2="292" y2="174" stroke="#E2E8F0" stroke-width="0.8"/>
<line x1="138" y1="195" x2="292" y2="230" stroke="#E2E8F0" stroke-width="0.8"/>
<line x1="138" y1="195" x2="292" y2="286" stroke="#E2E8F0" stroke-width="0.8"/>
<line x1="138" y1="195" x2="292" y2="342" stroke="#E2E8F0" stroke-width="0.8"/>
<line x1="138" y1="265" x2="292" y2="118" stroke="#E2E8F0" stroke-width="0.8"/>
<line x1="138" y1="265" x2="292" y2="174" stroke="#E2E8F0" stroke-width="0.8"/>
<line x1="138" y1="265" x2="292" y2="230" stroke="#E2E8F0" stroke-width="0.8"/>
<line x1="138" y1="265" x2="292" y2="286" stroke="#E2E8F0" stroke-width="0.8"/>
<line x1="138" y1="265" x2="292" y2="342" stroke="#E2E8F0" stroke-width="0.8"/>
<line x1="138" y1="335" x2="292" y2="118" stroke="#E2E8F0" stroke-width="0.8"/>
<line x1="138" y1="335" x2="292" y2="174" stroke="#E2E8F0" stroke-width="0.8"/>
<line x1="138" y1="335" x2="292" y2="230" stroke="#E2E8F0" stroke-width="0.8"/>
<line x1="138" y1="335" x2="292" y2="286" stroke="#E2E8F0" stroke-width="0.8"/>
<line x1="138" y1="335" x2="292" y2="342" stroke="#E2E8F0" stroke-width="0.8"/>
<line x1="328" y1="118" x2="482" y2="125" stroke="#E2E8F0" stroke-width="0.8"/>
<line x1="328" y1="118" x2="482" y2="195" stroke="#E2E8F0" stroke-width="0.8"/>
<line x1="328" y1="118" x2="482" y2="265" stroke="#E2E8F0" stroke-width="0.8"/>
<line x1="328" y1="118" x2="482" y2="335" stroke="#E2E8F0" stroke-width="0.8"/>
<line x1="328" y1="174" x2="482" y2="125" stroke="#E2E8F0" stroke-width="0.8"/>
<line x1="328" y1="174" x2="482" y2="195" stroke="#E2E8F0" stroke-width="0.8"/>
<line x1="328" y1="174" x2="482" y2="265" stroke="#E2E8F0" stroke-width="0.8"/>
<line x1="328" y1="174" x2="482" y2="335" stroke="#E2E8F0" stroke-width="0.8"/>
<line x1="328" y1="230" x2="482" y2="125" stroke="#E2E8F0" stroke-width="0.8"/>
<line x1="328" y1="230" x2="482" y2="195" stroke="#E2E8F0" stroke-width="0.8"/>
<line x1="328" y1="230" x2="482" y2="265" stroke="#E2E8F0" stroke-width="0.8"/>
<line x1="328" y1="230" x2="482" y2="335" stroke="#E2E8F0" stroke-width="0.8"/>
<line x1="328" y1="286" x2="482" y2="125" stroke="#E2E8F0" stroke-width="0.8"/>
<line x1="328" y1="286" x2="482" y2="195" stroke="#E2E8F0" stroke-width="0.8"/>
<line x1="328" y1="286" x2="482" y2="265" stroke="#E2E8F0" stroke-width="0.8"/>
<line x1="328" y1="286" x2="482" y2="335" stroke="#E2E8F0" stroke-width="0.8"/>
<line x1="328" y1="342" x2="482" y2="125" stroke="#E2E8F0" stroke-width="0.8"/>
<line x1="328" y1="342" x2="482" y2="195" stroke="#E2E8F0" stroke-width="0.8"/>
<line x1="328" y1="342" x2="482" y2="265" stroke="#E2E8F0" stroke-width="0.8"/>
<line x1="328" y1="342" x2="482" y2="335" stroke="#E2E8F0" stroke-width="0.8"/>
<line x1="518" y1="125" x2="662" y2="160" stroke="#E2E8F0" stroke-width="0.8"/>
<line x1="518" y1="125" x2="662" y2="300" stroke="#E2E8F0" stroke-width="0.8"/>
<line x1="518" y1="195" x2="662" y2="160" stroke="#E2E8F0" stroke-width="0.8"/>
<line x1="518" y1="195" x2="662" y2="300" stroke="#E2E8F0" stroke-width="0.8"/>
<line x1="518" y1="265" x2="662" y2="160" stroke="#E2E8F0" stroke-width="0.8"/>
<line x1="518" y1="265" x2="662" y2="300" stroke="#E2E8F0" stroke-width="0.8"/>
<line x1="518" y1="335" x2="662" y2="160" stroke="#E2E8F0" stroke-width="0.8"/>
<line x1="518" y1="335" x2="662" y2="300" stroke="#E2E8F0" stroke-width="0.8"/>
<circle cx="120" cy="125" r="18" fill="#22C1A6" opacity="0.15"/>
<circle cx="120" cy="125" r="18" fill="none" stroke="#22C1A6" stroke-width="2"/>
<circle cx="120" cy="195" r="18" fill="#22C1A6" opacity="0.15"/>
<circle cx="120" cy="195" r="18" fill="none" stroke="#22C1A6" stroke-width="2"/>
<circle cx="120" cy="265" r="18" fill="#22C1A6" opacity="0.15"/>
<circle cx="120" cy="265" r="18" fill="none" stroke="#22C1A6" stroke-width="2"/>
<circle cx="120" cy="335" r="18" fill="#22C1A6" opacity="0.15"/>
<circle cx="120" cy="335" r="18" fill="none" stroke="#22C1A6" stroke-width="2"/>
<text x="120" y="400" font-size="12" fill="#2D3748" text-anchor="middle" font-weight="600" font-family="'Inter', 'Segoe UI', 'Helvetica Neue', sans-serif" dy="0.35em">Input Layer</text>
<circle cx="310" cy="118" r="18" fill="#2E7BF6" opacity="0.15"/>
<circle cx="310" cy="118" r="18" fill="none" stroke="#2E7BF6" stroke-width="2"/>
<circle cx="310" cy="174" r="18" fill="#2E7BF6" opacity="0.15"/>
<circle cx="310" cy="174" r="18" fill="none" stroke="#2E7BF6" stroke-width="2"/>
<circle cx="310" cy="230" r="18" fill="#2E7BF6" opacity="0.15"/>
<circle cx="310" cy="230" r="18" fill="none" stroke="#2E7BF6" stroke-width="2"/>
<circle cx="310" cy="286" r="18" fill="#2E7BF6" opacity="0.15"/>
<circle cx="310" cy="286" r="18" fill="none" stroke="#2E7BF6" stroke-width="2"/>
<circle cx="310" cy="342" r="18" fill="#2E7BF6" opacity="0.15"/>
<circle cx="310" cy="342" r="18" fill="none" stroke="#2E7BF6" stroke-width="2"/>
<text x="310" y="400" font-size="12" fill="#2D3748" text-anchor="middle" font-weight="600" font-family="'Inter', 'Segoe UI', 'Helvetica Neue', sans-serif" dy="0.35em">Hidden Layer 1</text>
<circle cx="500" cy="125" r="18" fill="#2E7BF6" opacity="0.15"/>
<circle cx="500" cy="125" r="18" fill="none" stroke="#2E7BF6" stroke-width="2"/>
<circle cx="500" cy="195" r="18" fill="#2E7BF6" opacity="0.15"/>
<circle cx="500" cy="195" r="18" fill="none" stroke="#2E7BF6" stroke-width="2"/>
<circle cx="500" cy="265" r="18" fill="#2E7BF6" opacity="0.15"/>
<circle cx="500" cy="265" r="18" fill="none" stroke="#2E7BF6" stroke-width="2"/>
<circle cx="500" cy="335" r="18" fill="#2E7BF6" opacity="0.15"/>
<circle cx="500" cy="335" r="18" fill="none" stroke="#2E7BF6" stroke-width="2"/>
<text x="500" y="400" font-size="12" fill="#2D3748" text-anchor="middle" font-weight="600" font-family="'Inter', 'Segoe UI', 'Helvetica Neue', sans-serif" dy="0.35em">Hidden Layer 2</text>
<circle cx="680" cy="160" r="18" fill="#FF8A3D" opacity="0.15"/>
<circle cx="680" cy="160" r="18" fill="none" stroke="#FF8A3D" stroke-width="2"/>
<circle cx="680" cy="300" r="18" fill="#FF8A3D" opacity="0.15"/>
<circle cx="680" cy="300" r="18" fill="none" stroke="#FF8A3D" stroke-width="2"/>
<text x="680" y="400" font-size="12" fill="#2D3748" text-anchor="middle" font-weight="600" font-family="'Inter', 'Segoe UI', 'Helvetica Neue', sans-serif" dy="0.35em">Output Layer</text>
<text x="400" y="425" font-size="12" fill="#718096" text-anchor="middle" font-weight="normal" font-family="'Inter', 'Segoe UI', 'Helvetica Neue', sans-serif" dy="0.35em">Information flows left → right</text>
<rect x="80" y="410" width="100" height="26" rx="6" fill="#E6FAF5"/>
<text x="130" y="423" font-size="11" fill="#22C1A6" text-anchor="middle" font-weight="500" font-family="'Inter', 'Segoe UI', 'Helvetica Neue', sans-serif" dy="0.35em">Features</text>
<rect x="270" y="410" width="270" height="26" rx="6" fill="#EBF4FF"/>
<text x="405" y="423" font-size="11" fill="#2E7BF6" text-anchor="middle" font-weight="500" font-family="'Inter', 'Segoe UI', 'Helvetica Neue', sans-serif" dy="0.35em">Learning &amp; Abstraction</text>
<rect x="620" y="410" width="130" height="26" rx="6" fill="#FFF3EB"/>
<text x="685" y="423" font-size="11" fill="#FF8A3D" text-anchor="middle" font-weight="500" font-family="'Inter', 'Segoe UI', 'Helvetica Neue', sans-serif" dy="0.35em">Prediction</text>
</svg>