<?xml version="1.0" encoding="UTF-8"?>
<svg xmlns="http://www.w3.org/2000/svg" viewBox="0 0 800 450" width="800" height="450">
<defs>
<marker id="arrowhead" markerWidth="10" markerHeight="7" refX="9" refY="3.5" orient="auto">
  <polygon points="0 0, 10 3.5, 0 7" fill="#2D3748"/>
</marker>
<filter id="shadow" x="-4%" y="-4%" width="108%" height="108%">
  <feDropShadow dx="0" dy="2" stdDeviation="3" flood-opacity="0.08"/>
</filter>
</defs>
<rect x="0" y="0" width="800" height="450" rx="0" fill="#F8FAFE"/>
<text x="400" y="35" font-size="22" fill="#2D3748" text-anchor="middle" font-weight="bold" font-family="'Inter', 'Segoe UI', 'Helvetica Neue', sans-serif" dy="0.35em">CNN Pipeline</text>
<rect x="30" y="120" width="100" height="200" rx="10" fill="#22C1A6" opacity="0.1"/>
<rect x="30" y="120" width="100" height="200" rx="10" fill="none" stroke="#22C1A6" stroke-width="1.5"/>
<text x="80" y="108" font-size="12" fill="#22C1A6" text-anchor="middle" font-weight="600" font-family="'Inter', 'Segoe UI', 'Helvetica Neue', sans-serif" dy="0.35em">Input</text>
<text x="80" y="338" font-size="11" fill="#718096" text-anchor="middle" font-weight="normal" font-family="'Inter', 'Segoe UI', 'Helvetica Neue', sans-serif" dy="0.35em">Image</text>
<line x1="135" y1="220" x2="165" y2="220" stroke="#2D3748" stroke-width="1.5" marker-end="url(#arrowhead)"/>
<rect x="170" y="120" width="120" height="200" rx="10" fill="#2E7BF6" opacity="0.1"/>
<rect x="170" y="120" width="120" height="200" rx="10" fill="none" stroke="#2E7BF6" stroke-width="1.5"/>
<text x="230" y="108" font-size="12" fill="#2E7BF6" text-anchor="middle" font-weight="600" font-family="'Inter', 'Segoe UI', 'Helvetica Neue', sans-serif" dy="0.35em">Convolution</text>
<text x="230" y="338" font-size="11" fill="#718096" text-anchor="middle" font-weight="normal" font-family="'Inter', 'Segoe UI', 'Helvetica Neue', sans-serif" dy="0.35em">Extract features</text>
<line x1="295" y1="220" x2="325" y2="220" stroke="#2D3748" stroke-width="1.5" marker-end="url(#arrowhead)"/>
<rect x="330" y="120" width="110" height="200" rx="10" fill="#9F7AEA" opacity="0.1"/>
<rect x="330" y="120" width="110" height="200" rx="10" fill="none" stroke="#9F7AEA" stroke-width="1.5"/>
<text x="385" y="108" font-size="12" fill="#9F7AEA" text-anchor="middle" font-weight="600" font-family="'Inter', 'Segoe UI', 'Helvetica Neue', sans-serif" dy="0.35em">Pooling</text>
<text x="385" y="338" font-size="11" fill="#718096" text-anchor="middle" font-weight="normal" font-family="'Inter', 'Segoe UI', 'Helvetica Neue', sans-serif" dy="0.35em">Downsample</text>
<line x1="445" y1="220" x2="475" y2="220" stroke="#2D3748" stroke-width="1.5" marker-end="url(#arrowhead)"/>
<rect x="480" y="120" width="130" height="200" rx="10" fill="#FF8A3D" opacity="0.1"/>
<rect x="480" y="120" width="130" height="200" rx="10" fill="none" stroke="#FF8A3D" stroke-width="1.5"/>
<text x="545" y="108" font-size="12" fill="#FF8A3D" text-anchor="middle" font-weight="600" font-family="'Inter', 'Segoe UI', 'Helvetica Neue', sans-serif" dy="0.35em">Fully Connected</text>
<text x="545" y="338" font-size="11" fill="#718096" text-anchor="middle" font-weight="normal" font-family="'Inter', 'Segoe UI', 'Helvetica Neue', sans-serif" dy="0.35em">Classify</text>
<line x1="615" y1="220" x2="655" y2="220" stroke="#2D3748" stroke-width="1.5" marker-end="url(#arrowhead)"/>
<rect x="660" y="120" width="110" height="200" rx="10" fill="#48BB78" opacity="0.1"/>
<rect x="660" y="120" width="110" height="200" rx="10" fill="none" stroke="#48BB78" stroke-width="1.5"/>
<text x="715" y="108" font-size="12" fill="#48BB78" text-anchor="middle" font-weight="600" font-family="'Inter', 'Segoe UI', 'Helvetica Neue', sans-serif" dy="0.35em">Output</text>
<text x="715" y="338" font-size="11" fill="#718096" text-anchor="middle" font-weight="normal" font-family="'Inter', 'Segoe UI', 'Helvetica Neue', sans-serif" dy="0.35em">Cat 95%</text>
<rect x="42" y="145" width="16" height="24" rx="2" fill="#22C1A6"/>
<rect x="62" y="145" width="16" height="24" rx="2" fill="#EBF4FF"/>
<rect x="82" y="145" width="16" height="24" rx="2" fill="#E6FAF5"/>
<rect x="102" y="145" width="16" height="24" rx="2" fill="#22C1A6"/>
<rect x="42" y="175" width="16" height="24" rx="2" fill="#EBF4FF"/>
<rect x="62" y="175" width="16" height="24" rx="2" fill="#E6FAF5"/>
<rect x="82" y="175" width="16" height="24" rx="2" fill="#22C1A6"/>
<rect x="102" y="175" width="16" height="24" rx="2" fill="#EBF4FF"/>
<rect x="42" y="205" width="16" height="24" rx="2" fill="#E6FAF5"/>
<rect x="62" y="205" width="16" height="24" rx="2" fill="#22C1A6"/>
<rect x="82" y="205" width="16" height="24" rx="2" fill="#EBF4FF"/>
<rect x="102" y="205" width="16" height="24" rx="2" fill="#E6FAF5"/>
<rect x="42" y="235" width="16" height="24" rx="2" fill="#22C1A6"/>
<rect x="62" y="235" width="16" height="24" rx="2" fill="#EBF4FF"/>
<rect x="82" y="235" width="16" height="24" rx="2" fill="#E6FAF5"/>
<rect x="102" y="235" width="16" height="24" rx="2" fill="#22C1A6"/>
<rect x="42" y="265" width="16" height="24" rx="2" fill="#EBF4FF"/>
<rect x="62" y="265" width="16" height="24" rx="2" fill="#E6FAF5"/>
<rect x="82" y="265" width="16" height="24" rx="2" fill="#22C1A6"/>
<rect x="102" y="265" width="16" height="24" rx="2" fill="#EBF4FF"/>
<rect x="185" y="145" width="90" height="30" rx="4" fill="#2E7BF6" opacity="0.15"/>
<rect x="185" y="185" width="90" height="30" rx="4" fill="#2E7BF6" opacity="0.25"/>
<rect x="185" y="225" width="90" height="30" rx="4" fill="#2E7BF6" opacity="0.35"/>
<rect x="185" y="265" width="90" height="30" rx="4" fill="#2E7BF6" opacity="0.45000000000000007"/>
<rect x="350" y="160" width="70" height="35" rx="4" fill="#9F7AEA" opacity="0.2"/>
<rect x="350" y="210" width="70" height="35" rx="4" fill="#9F7AEA" opacity="0.2"/>
<rect x="350" y="260" width="70" height="35" rx="4" fill="#9F7AEA" opacity="0.2"/>
<circle cx="545" cy="170" r="10" fill="#FF8A3D" opacity="0.3"/>
<circle cx="545" cy="170" r="10" fill="none" stroke="#FF8A3D" stroke-width="1.5"/>
<circle cx="545" cy="210" r="10" fill="#FF8A3D" opacity="0.3"/>
<circle cx="545" cy="210" r="10" fill="none" stroke="#FF8A3D" stroke-width="1.5"/>
<circle cx="545" cy="250" r="10" fill="#FF8A3D" opacity="0.3"/>
<circle cx="545" cy="250" r="10" fill="none" stroke="#FF8A3D" stroke-width="1.5"/>
<circle cx="545" cy="270" r="10" fill="#FF8A3D" opacity="0.3"/>
<circle cx="545" cy="270" r="10" fill="none" stroke="#FF8A3D" stroke-width="1.5"/>
<rect x="680" y="180" width="70" height="60" rx="8" fill="#48BB78" opacity="0.15"/>
<text x="715" y="215" font-size="14" fill="#48BB78" text-anchor="middle" font-weight="bold" font-family="'Inter', 'Segoe UI', 'Helvetica Neue', sans-serif" dy="0.35em">Cat</text>
<text x="715" y="232" font-size="13" fill="#48BB78" text-anchor="middle" font-weight="normal" font-family="'Inter', 'Segoe UI', 'Helvetica Neue', sans-serif" dy="0.35em">95%</text>
<rect x="150" y="380" width="500" height="40" rx="8" fill="#FFFFFF" stroke="#E2E8F0" stroke-width="1.5"/>
<text x="400" y="404" font-size="12" fill="#718096" text-anchor="middle" font-weight="normal" font-family="'Inter', 'Segoe UI', 'Helvetica Neue', sans-serif" dy="0.35em">Image → Features → Compression → Classification → Result</text>
</svg>