<?xml version="1.0" encoding="UTF-8"?>
<svg xmlns="http://www.w3.org/2000/svg" viewBox="0 0 800 450" width="800" height="450">
<defs>
<marker id="arrowhead" markerWidth="10" markerHeight="7" refX="9" refY="3.5" orient="auto">
  <polygon points="0 0, 10 3.5, 0 7" fill="#2D3748"/>
</marker>
<filter id="shadow" x="-4%" y="-4%" width="108%" height="108%">
  <feDropShadow dx="0" dy="2" stdDeviation="3" flood-opacity="0.08"/>
</filter>
</defs>
<rect x="0" y="0" width="800" height="450" rx="0" fill="#F8FAFE"/>
<text x="400" y="35" font-size="22" fill="#2D3748" text-anchor="middle" font-weight="bold" font-family="'Inter', 'Segoe UI', 'Helvetica Neue', sans-serif" dy="0.35em">Rule-Based vs. Learning-Based</text>
<line x1="400" y1="70" x2="400" y2="420" stroke="#E2E8F0" stroke-width="2" stroke-dasharray="6,4"/>
<rect x="40" y="80" width="320" height="310" rx="12" fill="#F7FAFC" stroke="#CBD5E0" stroke-width="1.5"/>
<text x="200" y="110" font-size="16" fill="#4A5568" text-anchor="middle" font-weight="bold" font-family="'Inter', 'Segoe UI', 'Helvetica Neue', sans-serif" dy="0.35em">Hard-Coded Rules</text>
<rect x="140" y="140" width="120" height="150" rx="6" fill="#FFFFFF" stroke="#CBD5E0" stroke-width="1.5"/>
<text x="200" y="160" font-size="12" fill="#4A5568" text-anchor="middle" font-weight="600" font-family="'Inter', 'Segoe UI', 'Helvetica Neue', sans-serif" dy="0.35em">Rule Book</text>
<line x1="155" y1="180" x2="245" y2="180" stroke="#CBD5E0" stroke-width="1.5"/>
<line x1="155" y1="196" x2="245" y2="196" stroke="#CBD5E0" stroke-width="1.5"/>
<line x1="155" y1="212" x2="245" y2="212" stroke="#CBD5E0" stroke-width="1.5"/>
<line x1="155" y1="228" x2="245" y2="228" stroke="#CBD5E0" stroke-width="1.5"/>
<line x1="155" y1="244" x2="245" y2="244" stroke="#CBD5E0" stroke-width="1.5"/>
<line x1="155" y1="260" x2="245" y2="260" stroke="#CBD5E0" stroke-width="1.5"/>
<circle cx="200" cy="330" r="20" fill="#EDF2F7" stroke="#A0AEC0" stroke-width="2"/>
<text x="200" y="330" font-size="16" fill="#2D3748" text-anchor="middle" font-weight="normal" font-family="'Inter', 'Segoe UI', 'Helvetica Neue', sans-serif" dy="0.35em">😓</text>
<text x="200" y="365" font-size="11" fill="#718096" text-anchor="middle" font-weight="normal" font-family="'Inter', 'Segoe UI', 'Helvetica Neue', sans-serif" dy="0.35em">Manual &amp; Brittle</text>
<rect x="440" y="80" width="320" height="310" rx="12" fill="#EBF4FF" stroke="#2E7BF6" stroke-width="1.5"/>
<text x="600" y="110" font-size="16" fill="#2E7BF6" text-anchor="middle" font-weight="bold" font-family="'Inter', 'Segoe UI', 'Helvetica Neue', sans-serif" dy="0.35em">Automatic Learning</text>
<rect x="470" y="140" width="260" height="25" rx="4" fill="#2E7BF6" opacity="0.08"/>
<line x1="480" y1="152" x2="580" y2="152" stroke="#2E7BF6" stroke-width="1"/>
<rect x="470" y="175" width="260" height="25" rx="4" fill="#2E7BF6" opacity="0.12"/>
<line x1="480" y1="187" x2="600" y2="187" stroke="#2E7BF6" stroke-width="1"/>
<rect x="470" y="210" width="260" height="25" rx="4" fill="#2E7BF6" opacity="0.16"/>
<line x1="480" y1="222" x2="620" y2="222" stroke="#2E7BF6" stroke-width="1"/>
<rect x="470" y="245" width="260" height="25" rx="4" fill="#2E7BF6" opacity="0.2"/>
<line x1="480" y1="257" x2="640" y2="257" stroke="#2E7BF6" stroke-width="1"/>
<text x="600" y="295" font-size="13" fill="#2E7BF6" text-anchor="middle" font-weight="500" font-family="'Inter', 'Segoe UI', 'Helvetica Neue', sans-serif" dy="0.35em">Data</text>
<circle cx="600" cy="330" r="20" fill="#EBF4FF" stroke="#2E7BF6" stroke-width="2"/>
<text x="600" y="330" font-size="16" fill="#2D3748" text-anchor="middle" font-weight="normal" font-family="'Inter', 'Segoe UI', 'Helvetica Neue', sans-serif" dy="0.35em">💡</text>
<text x="600" y="365" font-size="11" fill="#2E7BF6" text-anchor="middle" font-weight="normal" font-family="'Inter', 'Segoe UI', 'Helvetica Neue', sans-serif" dy="0.35em">Adaptive &amp; Scalable</text>
<circle cx="400" cy="245" r="22" fill="#FFFFFF" stroke="#E2E8F0" stroke-width="2"/>
<text x="400" y="245" font-size="12" fill="#2D3748" text-anchor="middle" font-weight="bold" font-family="'Inter', 'Segoe UI', 'Helvetica Neue', sans-serif" dy="0.35em">VS</text>
</svg>