<?xml version="1.0" encoding="UTF-8"?>
<svg xmlns="http://www.w3.org/2000/svg" viewBox="0 0 800 450" width="800" height="450">
<defs>
<marker id="arrowhead" markerWidth="10" markerHeight="7" refX="9" refY="3.5" orient="auto">
  <polygon points="0 0, 10 3.5, 0 7" fill="#2D3748"/>
</marker>
<filter id="shadow" x="-4%" y="-4%" width="108%" height="108%">
  <feDropShadow dx="0" dy="2" stdDeviation="3" flood-opacity="0.08"/>
</filter>
</defs>
<rect x="0" y="0" width="800" height="450" rx="0" fill="#F8FAFE"/>
<circle cx="100" cy="80" r="100" fill="#EBF4FF" opacity="0.3"/>
<circle cx="700" cy="380" r="120" fill="#E6FAF5" opacity="0.3"/>
<text x="400" y="45" font-size="26" fill="#2D3748" text-anchor="middle" font-weight="bold" font-family="'Inter', 'Segoe UI', 'Helvetica Neue', sans-serif" dy="0.35em">Three Types of Readers</text>
<circle cx="160" cy="120" r="24" fill="#FFF3EB" opacity="0.8"/>
<text x="160" y="120" font-size="22" fill="#FF8A3D" text-anchor="middle" font-weight="bold" font-family="'Inter', 'Segoe UI', 'Helvetica Neue', sans-serif" dy="0.35em">?</text>
<circle cx="160" cy="165" r="22" fill="#FF8A3D" opacity="0.2"/>
<circle cx="160" cy="165" r="22" fill="none" stroke="#FF8A3D" stroke-width="2"/>
<circle cx="153" cy="160" r="2.5" fill="#2D3748"/>
<circle cx="167" cy="160" r="2.5" fill="#2D3748"/>
<path d="M154,172 Q160,178 166,172" fill="none" stroke="#2D3748" stroke-width="1.5"/>
<rect x="138" y="192" width="44" height="55" rx="12" fill="#FF8A3D" opacity="0.2"/>
<rect x="138" y="192" width="44" height="55" rx="12" fill="none" stroke="#FF8A3D" stroke-width="1.5"/>
<text x="160" y="270" font-size="15" fill="#2D3748" text-anchor="middle" font-weight="600" font-family="'Inter', 'Segoe UI', 'Helvetica Neue', sans-serif" dy="0.35em">Outsider</text>
<text x="160" y="290" font-size="12" fill="#718096" text-anchor="middle" font-weight="normal" font-family="'Inter', 'Segoe UI', 'Helvetica Neue', sans-serif" dy="0.35em">Curious about AI</text>
<circle cx="400" cy="120" r="24" fill="#EBF4FF" opacity="0.8"/>
<g transform="translate(388, 108) scale(1)">
<path d="M12 8a4 4 0 100 8 4 4 0 000-8zm0-6l1.5 2.4a7 7 0 013.1 1.8L19 5l1 3.5-2.3 1.2a7 7 0 010 3.6L20 14.5 19 18l-2.4-1.2a7 7 0 01-3.1 1.8L12 21l-1.5-2.4a7 7 0 01-3.1-1.8L5 18l-1-3.5 2.3-1.2a7 7 0 010-3.6L4 8.5 5 5l2.4 1.2a7 7 0 013.1-1.8L12 2z" fill="#2E7BF6" stroke="none" stroke-width="0"/>
</g>
<circle cx="400" cy="165" r="22" fill="#2E7BF6" opacity="0.2"/>
<circle cx="400" cy="165" r="22" fill="none" stroke="#2E7BF6" stroke-width="2"/>
<circle cx="393" cy="160" r="2.5" fill="#2D3748"/>
<circle cx="407" cy="160" r="2.5" fill="#2D3748"/>
<path d="M394,172 Q400,178 406,172" fill="none" stroke="#2D3748" stroke-width="1.5"/>
<rect x="378" y="192" width="44" height="55" rx="12" fill="#2E7BF6" opacity="0.2"/>
<rect x="378" y="192" width="44" height="55" rx="12" fill="none" stroke="#2E7BF6" stroke-width="1.5"/>
<rect x="375" y="210" width="50" height="32" rx="3" fill="#EBF4FF" stroke="#2E7BF6" stroke-width="1.5"/>
<rect x="370" y="242" width="60" height="4" rx="2" fill="#2E7BF6" opacity="0.5"/>
<text x="400" y="270" font-size="15" fill="#2D3748" text-anchor="middle" font-weight="600" font-family="'Inter', 'Segoe UI', 'Helvetica Neue', sans-serif" dy="0.35em">Practitioner</text>
<text x="400" y="290" font-size="12" fill="#718096" text-anchor="middle" font-weight="normal" font-family="'Inter', 'Segoe UI', 'Helvetica Neue', sans-serif" dy="0.35em">Apply AI at work</text>
<circle cx="640" cy="120" r="24" fill="#E6FAF5" opacity="0.8"/>
<g transform="translate(628, 108) scale(1)">
<path d="M4 4a2 2 0 012-2h8a2 2 0 012 2v16l-6-3-6 3V4z" fill="#2E7BF6" stroke="none" stroke-width="0"/>
</g>
<circle cx="640" cy="165" r="22" fill="#22C1A6" opacity="0.2"/>
<circle cx="640" cy="165" r="22" fill="none" stroke="#22C1A6" stroke-width="2"/>
<circle cx="633" cy="160" r="2.5" fill="#2D3748"/>
<circle cx="647" cy="160" r="2.5" fill="#2D3748"/>
<path d="M634,172 Q640,178 646,172" fill="none" stroke="#2D3748" stroke-width="1.5"/>
<rect x="618" y="192" width="44" height="55" rx="12" fill="#22C1A6" opacity="0.2"/>
<rect x="618" y="192" width="44" height="55" rx="12" fill="none" stroke="#22C1A6" stroke-width="1.5"/>
<path d="M625,170 Q620,185 625,200" fill="none" stroke="#22C1A6" stroke-width="2"/>
<path d="M655,170 Q660,185 655,200" fill="none" stroke="#22C1A6" stroke-width="2"/>
<text x="640" y="270" font-size="15" fill="#2D3748" text-anchor="middle" font-weight="600" font-family="'Inter', 'Segoe UI', 'Helvetica Neue', sans-serif" dy="0.35em">Student</text>
<text x="640" y="290" font-size="12" fill="#718096" text-anchor="middle" font-weight="normal" font-family="'Inter', 'Segoe UI', 'Helvetica Neue', sans-serif" dy="0.35em">Systematic learning</text>
<line x1="160" y1="310" x2="640" y2="310" stroke="#E2E8F0" stroke-width="1" stroke-dasharray="4,4"/>
<text x="400" y="420" font-size="14" fill="#718096" text-anchor="middle" font-weight="normal" font-family="'Inter', 'Segoe UI', 'Helvetica Neue', sans-serif" dy="0.35em">This book is for everyone</text>
</svg>